<?xml version="1.0" encoding="UTF-8" standalone="no"?>
<!-- Created with Inkscape (http://www.inkscape.org/) -->

<svg
   xmlns:dc="http://purl.org/dc/elements/1.1/"
   xmlns:cc="http://creativecommons.org/ns#"
   xmlns:rdf="http://www.w3.org/1999/02/22-rdf-syntax-ns#"
   xmlns:svg="http://www.w3.org/2000/svg"
   xmlns="http://www.w3.org/2000/svg"
   xmlns:sodipodi="http://sodipodi.sourceforge.net/DTD/sodipodi-0.dtd"
   xmlns:inkscape="http://www.inkscape.org/namespaces/inkscape"
   width="210mm"
   height="297mm"
   viewBox="0 0 210 297"
   version="1.1"
   id="svg39"
   inkscape:version="0.92.3 (2405546, 2018-03-11)"
   sodipodi:docname="devopsday-nome-base.svg">
  <defs
     id="defs33" />
  <sodipodi:namedview
     id="base"
     pagecolor="#ffffff"
     bordercolor="#666666"
     borderopacity="1.0"
     inkscape:pageopacity="0.0"
     inkscape:pageshadow="2"
     inkscape:zoom="0.7"
     inkscape:cx="406.16733"
     inkscape:cy="268.6908"
     inkscape:document-units="mm"
     inkscape:current-layer="layer1"
     showgrid="false"
     inkscape:window-width="1373"
     inkscape:window-height="755"
     inkscape:window-x="67"
     inkscape:window-y="27"
     inkscape:window-maximized="1" />
  <metadata
     id="metadata36">
    <rdf:RDF>
      <cc:Work
         rdf:about="">
        <dc:format>image/svg+xml</dc:format>
        <dc:type
           rdf:resource="http://purl.org/dc/dcmitype/StillImage" />
        <dc:title></dc:title>
      </cc:Work>
    </rdf:RDF>
  </metadata>
  <g
     inkscape:label="Layer 1"
     inkscape:groupmode="layer"
     id="layer1">
    <path
       id="_x23_1B81A8"
       class="st0"
       d="m 174.04818,201.41996 c 0.0192,-0.50062 -0.34658,-0.6354 -0.77018,-0.82794 -1.25154,-0.57763 -1.75216,-1.71365 -1.86769,-3.04222 -0.11552,-1.32856 -0.42359,-2.36831 -2.38756,-0.77018 2.17576,-3.4273 0.38509,-6.12294 -0.96273,-8.33721 -0.75092,-1.23229 -1.32856,-1.94471 -0.90496,-3.33104 0.13478,-0.44285 -0.23106,-1.13601 -0.77019,-1.11676 -1.86768,0.077 -3.81239,-0.67391 -5.60307,0.4236 -0.44285,1.7329 -0.92422,3.46582 -1.77142,5.0832 -0.0578,0.34658 -0.11553,0.69317 -0.21179,1.03974 -0.65466,1.96396 -1.19378,3.96644 -2.04099,5.83412 -0.75093,1.65589 -0.25031,4.12048 -2.83042,4.69812 -0.0578,0.0192 -0.0385,0.26955 -0.077,0.40434 -0.51987,2.50309 0.0578,3.177 2.61861,3.11924 1.13603,-0.0193 2.27204,-0.0963 3.38881,0.0192 1.82918,0.2118 2.21427,-0.59689 2.23352,-2.31054 0.0385,-2.07949 -1.55962,-1.07826 -2.52234,-1.6559 0.50061,-0.94346 0.0963,-2.48383 1.98322,-2.40681 1.27079,0.0385 2.56084,0.0963 3.83165,0.0578 1.36707,-0.0578 1.4441,1.05899 1.57888,1.86769 0.19254,1.07825 -0.80869,0.75092 -1.34783,0.73167 -1.07825,-0.0385 -1.17452,0.59689 -1.07825,1.36707 0.0963,0.82795 -0.42361,2.15651 0.92422,2.25279 2.3298,0.17328 4.69811,0.0385 7.1627,0.0385 -0.46212,-1.29006 -2.07949,-1.40559 -1.55963,-2.98447 0.48137,0.23106 0.65465,0.73168 0.98199,1.07826 0.48135,0.50062 1.13602,1.21304 1.79067,0.78944 0.59689,-0.38509 0.2118,-1.32856 0.2118,-2.02172 z m -8.79933,-6.08443 c -4.52481,-0.0963 -4.56332,1.29005 -2.04097,-5.50679 1.48259,1.61738 1.32856,3.71612 2.46458,5.21797 -0.23106,0.15404 -0.32733,0.28882 -0.42361,0.28882 z m 25.78184,-11.34092 c -0.80869,-0.13478 -1.6944,-0.0963 -1.23229,1.17453 l -0.44285,0.30807 c -0.63541,-1.59813 -2.00248,-1.63664 -3.36956,-1.46335 -0.90495,0.11553 -0.4621,1.02049 -0.57763,1.57887 -0.30807,1.55962 0.19254,2.52235 2.15651,2.40683 -0.65465,1.03974 -1.15528,1.80992 -1.61738,2.58011 -0.50061,0.84719 -0.96272,1.7329 -1.42484,2.59936 v 0.0193 c -0.90496,0.0385 -0.92422,-0.98199 -1.54036,-1.29006 l -0.19254,-0.40434 c -0.80869,-1.57888 -2.15651,-3.06148 -0.11553,-4.77513 0.53912,-0.46211 0.0963,-1.17453 -0.6354,-1.44409 l -0.0385,-0.0385 c -0.2503,-1.15528 -3.15774,-2.06024 -3.88941,-0.98199 -0.73168,1.07825 -0.63539,0.51988 -1.27081,0.0385 -0.86644,-0.63541 -2.00246,0.13478 -3.04221,0.0192 0.19255,1.19378 -0.51987,2.61861 0.96272,3.4273 l -0.15403,-1.07825 c -0.32733,-0.25031 -0.44286,-0.61615 -0.077,-0.78943 0.25031,-0.11553 0.34658,0.26956 0.34658,0.53912 0.11553,0 0.21181,0.0193 0.30807,0.0963 0.0578,0.42359 0.38509,0.51987 0.73168,0.55838 l 0.0385,-0.0385 -0.0385,0.0385 c 0.25031,1.25154 -0.55838,0.77018 -1.11676,0.71242 l 2.84966,3.92792 h -0.0192 c 0.19255,0.71243 0.38509,1.44409 1.15527,1.79067 v 0.0193 c 0.51988,0.92421 1.21305,1.80992 1.50185,2.7919 0.44286,1.54037 1.55962,3.19625 -0.71241,4.54407 -0.75093,0.44286 -1.23229,1.9062 -0.90496,3.08073 0.32732,1.21303 1.42483,0.6354 2.17575,0.71242 1.2708,0.0963 2.56086,0.0193 3.83166,0.0193 3.65836,0.0192 3.67762,0.0192 3.54284,-3.50434 0,-0.0963 -0.17329,-0.17329 -0.32734,-0.32732 -0.50061,0.38508 -0.2503,1.54035 -1.5211,1.29005 0.73167,-0.94347 -0.077,-1.69441 -0.2118,-2.56086 -0.40435,-2.46458 0.28881,-3.98569 2.09874,-6.14219 1.32857,-1.57887 1.98323,-4.15899 3.60061,-4.96768 2.09874,-1.05899 1.32857,-2.44532 1.34781,-3.65836 0.0193,-1.46335 -1.38633,-0.69316 -2.17577,-0.80869 z m -11.32167,19.2738 c -0.0963,-0.0385 -0.26956,-0.0963 -0.28881,-0.15405 0,-0.19254 0,-0.38509 0.0385,-0.57763 0.1733,0.0963 0.34657,0.13478 0.34657,0.19254 0,0.1733 -0.0385,0.36584 -0.0963,0.53914 z m -28.30418,-13.32414 c -0.88571,-4.17825 -2.88819,-5.83413 -6.93164,-5.91115 -2.94594,-0.0578 -5.91115,0 -8.85709,0.0385 -0.77018,0 -1.92545,-0.42359 -1.79068,1.00123 0.11553,1.19379 -0.92422,3.04223 1.50186,3.17701 0,1.34782 -0.0963,2.69563 0.0192,4.0242 0.15404,1.71365 -0.53912,3.50433 0.42361,5.16021 -0.0385,0.90497 1.32856,1.94471 -0.2118,2.7534 -0.0385,0.0192 0.0578,0.38509 0.13478,0.57763 0.30808,0.86646 -0.26956,1.15528 -0.8472,0.90498 -1.34782,-0.57764 -1.09751,0.38508 -1.03974,1.00123 0.0578,0.73167 -0.44286,1.98322 0.98198,1.9062 4.35152,-0.26956 8.79933,0.69316 13.03532,-1.02049 0.48137,0.28882 0.82795,0.17329 1.02049,-0.38508 l 0.30808,-0.28883 c 1.32856,-0.0193 1.29006,-0.80869 0.8472,-1.67515 -0.25031,-0.48135 -0.71242,-0.86645 -0.61614,-1.50185 l 0.11552,-0.0193 0.0385,-0.0963 0.78944,-0.36584 c 0.4236,0.0385 0.88571,0.15403 0.98198,-0.44285 0.46211,-2.94596 0.69317,-5.91114 0.0963,-8.83783 z m -4.81364,1.79067 c -0.28882,1.94471 -0.25031,3.94717 -0.38509,5.91113 -0.17329,2.7149 -2.31055,4.12048 -4.92916,3.31179 -0.75093,-0.23106 -0.73168,-0.77019 -0.73168,-1.32857 -0.0193,-1.77141 0,-3.54284 0,-5.31425 0,-1.2708 -0.0963,-2.56086 0.0385,-3.81239 0.077,-0.90497 -0.6354,-2.23353 0.65465,-2.59937 1.32857,-0.36584 2.90744,-0.4621 4.04346,0.57764 0.90496,0.80869 1.54036,1.80992 1.30931,3.25402 z M 64.720858,186.3244 c -0.365837,-0.65464 -0.654655,-1.07824 -0.01925,-1.77141 0.327328,-0.36584 -0.115527,-0.82794 -0.616145,-0.71242 -1.867691,0.44286 -3.716127,-0.23105 -5.564564,-0.0193 -0.308073,0.0385 -0.808691,-0.13478 -0.789437,0.38509 0.01925,0.38509 0.327328,0.46211 0.750927,0.44286 1.09751,-0.0578 1.925455,1.0975 3.234764,0.53912 -0.154036,1.21304 -1.058999,0.98199 -1.636636,1.30931 -2.021727,1.11676 -2.522346,0.077 -2.79191,-1.63664 -0.05776,-0.38509 -0.01925,-0.8472 -0.38509,-1.13601 l -0.6354,0.23105 c 0.01925,0.53913 -0.07702,1.0975 0.09627,1.57887 0.346582,0.98199 -0.05776,2.5031 1.848437,2.38757 0.962727,-0.0578 0.4236,0.77018 0.269563,1.17453 -0.904964,2.21427 -1.136018,4.62108 -2.214272,6.7776 -1.136019,2.25278 -0.962728,4.52482 0.115527,6.75833 0.327327,0.69317 0.6354,1.40559 0.442854,2.21428 0.269564,0.32733 0.616146,0.15404 0.693164,-0.077 0.500618,-1.63664 1.424837,-3.15774 1.598128,-4.90991 -0.154037,-0.94348 0.654654,-1.42483 1.020491,-2.09874 v -0.0193 c 0.38509,-1.7329 0.962726,-3.40805 1.732909,-5.00618 0.6354,-1.7329 0.442854,-3.88941 2.5416,-4.90991 0.519873,-0.32733 0.519873,-1.0975 0.308074,-1.50186 z m -7.547784,9.51175 c 1.193783,0.38509 1.193783,0.38509 1.559619,2.13725 -0.269563,-0.90497 -0.924219,-1.52111 -1.559619,-2.13725 z m -4.120473,-1.79066 c -0.519872,-2.07949 -1.521109,-4.06272 -1.501855,-6.27699 h 0.173292 l 0.17329,-0.0578 c 0.67391,0 1.578874,0.48136 1.94471,-0.2118 0.38509,-0.75092 -0.09627,-1.59812 -0.693163,-2.21427 -0.134783,-0.11553 -0.269564,-0.23106 -0.423601,-0.32733 -0.07702,-0.86645 -0.519873,-1.2708 -1.424837,-1.13602 -1.232291,0.19255 -0.770181,1.25154 -0.885709,2.25279 -0.442854,-0.55839 -0.731672,-1.15527 -0.924218,-1.11677 -2.098746,0.34658 -0.519873,-0.73167 -0.481363,-1.19378 l -0.673911,-0.0578 c -0.866454,0.0385 -1.752163,0.1733 -2.599363,0.077 -1.405582,-0.13478 -1.963964,0.34658 -1.617382,1.75216 -0.03851,1.13602 -0.731672,2.48384 1.309309,2.81117 0.288818,0.0385 1.906201,0.6354 1.444091,1.61738 -0.385091,0.82795 -0.07702,1.34782 0.115528,1.98322 0.500618,1.73291 1.675145,3.2155 1.829182,5.1217 0.07702,1.03974 1.039745,1.79067 1.232291,2.92669 0.269564,1.50186 0.596891,3.08073 1.386328,4.33228 1.039745,1.63663 2.9652,0.28882 4.409291,0.75092 0.115527,0.0193 0.231054,0.0385 0.346582,0.0578 0.231055,-0.5969 -0.01925,-1.13603 -0.173292,-1.71367 -0.80869,-3.17699 -2.195018,-6.19996 -2.9652,-9.37695 z m -2.118,5.27573 1.578873,4.56333 c -1.559618,-1.15528 -1.386327,-2.92669 -1.578873,-4.56333 z m -29.748275,-7.29746 c -0.327326,-4.75588 -0.442853,-7.00866 -6.026675,-8.10617 -0.924219,-0.19254 -2.021731,-0.4236 -2.426073,0.92421 -0.500621,0 -1.001235,0.0193 -1.42484,-0.34658 -0.924218,-0.8857 -4.4670515,-0.98198 -5.4105256,-0.13478 -0.3080703,0.28882 -0.7316753,0.77019 -0.9049631,0.25031 -0.4621086,-1.36707 -1.4248386,-0.57763 -2.1757625,-0.67391 0.3080703,1.59812 -0.981986,3.65836 1.3863277,4.6596 0.154031,0.0578 0.154031,0.55839 0.154031,0.8472 0,3.44657 0,6.87387 -0.019281,10.32043 0,0.44286 0.1347759,1.11677 -0.577636,1.05901 -1.0975134,-0.077 -0.9049705,0.67391 -0.9242191,1.29005 -0.038497,0.88571 -0.038497,1.77142 -0.057778,2.67639 l 0.3465821,0.0192 c 3.6583616,0.0385 7.3167305,0.13479 10.9558375,0.077 4.717363,-0.0963 6.469527,-1.77143 6.989404,-6.48879 0.250311,-2.118 0.288815,-4.25525 0.115527,-6.37324 z m -8.549019,9.12664 c -2.44533,0.1733 -2.503097,0.1733 -2.7148962,-2.1565 -0.077013,-0.84721 -0.4813646,-0.75093 -1.0397452,-0.73168 -0.2503098,0.0385 -0.5006131,-0.13478 -0.539125,-0.38509 v -0.15403 c 0,-0.25031 0.1925438,-0.44286 0.4428536,-0.46212 0.057778,0 0.1347833,0.0193 0.1925429,0.0385 1.2707999,0.50063 0.8857141,-0.51986 0.8857141,-1.02048 0.038497,-2.3683 0.077013,-4.73662 0,-7.10492 -0.038497,-1.19378 0.3850858,-1.4826 1.5403588,-1.50185 1.829189,-0.0193 3.446571,0.0963 4.158983,2.13725 0.19255,0.0192 0.365837,0.0578 0.539132,0.11553 -0.173295,-0.0578 -0.365838,-0.0963 -0.539132,-0.11553 0.308078,0.61615 0.134783,1.23229 0.173294,1.86769 0.09627,1.82918 -0.673907,3.73537 0.481365,5.44902 0.154032,1.77143 -1.713653,3.88942 -3.581345,4.0242 z m 3.600601,-11.14837 c 0.01929,0 0.0385,0.0192 0.05778,0.0385 -0.01928,0 -0.0385,-0.0192 -0.05778,-0.0385 z m 25.088674,10.10863 c 0.577636,4.75587 0.539127,4.77513 -4.197492,4.77513 -3.022963,0 -6.045928,-0.0385 -9.068894,-0.0578 -0.404342,0.0192 -0.827947,0.077 -1.232288,0.0578 -0.404349,-0.0192 -1.174529,0.2118 -1.097514,-0.46211 0.09628,-0.78943 0.65466,-0.25031 1.078258,-0.13479 0.539125,0.15404 0.827946,-0.25031 0.789435,-0.67391 -0.07701,-0.75093 -0.500614,-1.29005 -1.347816,-1.29005 -0.539124,0 -1.116761,0.57764 -1.578871,-0.2118 0.731669,-0.57764 1.386328,-1.00124 1.155273,-2.38757 -0.211805,-1.21303 -1.078256,-3.08073 0.885707,-4.00494 0.154039,-0.0963 0.211799,-0.30807 0.115528,-0.46211 -0.0385,-0.0578 -0.07701,-0.0963 -0.115528,-0.11553 -1.790677,-1.11675 -0.712419,-2.88818 -1.020489,-4.33226 -0.231055,-1.03974 0.712419,-2.56085 -1.309313,-2.88819 -0.423597,-0.0578 -0.231054,-0.84719 -0.250309,-1.3093 -0.0385,-0.82795 -0.07701,-1.6559 -0.115528,-2.46459 0.07702,-0.0963 0.115528,-0.19254 0.134783,-0.30807 0.616149,-0.19255 0.847202,0.50062 1.367071,0.55838 2.618624,-0.32733 5.256496,-0.77018 7.894368,-0.50062 0.885707,0.0963 1.771421,-0.32733 2.618618,0.11553 0.25031,0.19255 0.09627,0.82794 0.596892,0.71242 0.442853,-0.0963 0.269563,-0.57764 0.327326,-0.90497 0.654655,-0.15403 0.904964,0.53913 1.424837,0.67391 0.616146,-1.27079 1.713654,-0.61614 2.580109,-0.55838 0.827945,0.0578 0.577636,0.90496 0.577636,1.4441 0.01925,1.59812 -0.07702,3.19625 0.01925,4.77512 0.07702,1.21304 -0.385092,1.57888 -1.52111,1.46335 -0.712418,-0.077 -1.405582,-0.077 -2.118,-0.0193 -1.058999,0.11552 -1.540364,-0.23105 -1.463345,-1.34782 0.05776,-0.82794 -0.03851,-1.65589 -0.05777,-2.48383 -0.231054,-0.0193 -0.462109,-0.0385 -0.712419,-0.0385 -4.659601,-0.0963 -4.659601,-0.0963 -4.428548,4.6596 0.346583,0.0192 0.693165,0.0385 1.059002,0.0385 2.349058,0.0192 2.984456,0.82794 2.368313,3.15773 -0.327333,1.2323 -1.290056,0.5969 -2.021731,0.61615 l -1.367072,0.0963 c 0.09627,1.6559 -0.827946,3.46582 0.71242,4.92916 0.346582,-0.0192 0.712419,-0.0578 1.059001,-0.0578 3.234761,-0.077 3.27327,-0.077 3.369543,-3.33104 0.01925,-0.77018 0.192546,-1.059 0.981982,-1.00124 1.174527,0.077 2.522346,-0.28881 3.523581,0.13479 1.424838,0.59689 0.25031,2.06023 0.385091,3.13849 z"
       inkscape:connector-curvature="0"
       style="fill:#1b81a8;stroke-width:0.19254547"
       sodipodi:nodetypes="ccsccccccccccccccccccccccccsccccccccccccccccccccccccccccccccccccccccccccccccccccscccccccccccccccccccccccccccccscccccccccccccccccccccccccccccccccccccccccccccccccccccccccccccccccccccscccccccccccccsccccccccccccccccscccccscccccccccccccccccccccscccccccscccccc" />
    <path
       d="m 77.430702,181.86286 c -0.175398,0.006 -0.36659,0.0534 -0.57839,0.14479 -1.078255,0.48135 -2.926842,-0.0387 -2.946096,1.86754 -0.01925,1.2708 -0.673909,1.77157 -1.636636,2.17591 l -0.03836,0.0191 c -0.712419,0.96274 -1.463196,0.73168 -2.252632,0.0963 l -0.03874,-0.0192 -1.059,0.0768 c -0.346582,0.61615 -0.6354,1.2708 -1.059001,1.82918 -0.789436,1.02049 -1.135868,1.81016 0.05792,2.92692 1.097509,1.03974 0.115452,3.35014 -1.521184,3.98554 l -0.481364,0.25046 -0.288818,0.94355 0.09627,0.73144 c 0.134781,0.25031 0.385091,0.5198 0.385091,0.78936 0,1.55962 0.808841,2.17577 2.272187,2.11801 0.4236,-0.0192 0.84705,0.058 0.904814,0.61637 l 0.519721,0.73144 c 0.115528,0.0193 0.192547,0.13486 0.192547,0.26964 0.462109,0.26957 0.770256,0.78967 0.558456,1.19401 -1.001236,1.88694 0.365837,2.65683 1.540365,3.54254 0.80869,0.38508 1.598277,0.92437 2.368459,-0.13463 1.2708,-1.73291 2.522271,-0.55839 3.773816,0.0963 0.4236,0.50061 0.712568,1.11669 0.828096,1.75209 0.962728,0.53913 1.829032,-0.2309 2.733996,-0.2309 1.23229,0 1.656041,-0.69332 1.790823,-1.8871 0.231054,-2.13726 1.713429,-2.96498 3.812175,-2.27181 0.346582,0.11553 0.770107,0.38509 0.981907,0.0963 0.750928,-0.90497 1.424987,-1.88717 1.983369,-2.92691 0.385091,-0.75093 -0.404196,-1.25133 -0.808541,-1.79046 -0.712418,-0.96273 -0.616296,-2.75369 0.230904,-3.48537 1.694401,-1.46334 1.694476,-1.54029 -0.211724,-2.81109 0.385091,-0.4621 0.693013,-1.05908 1.193631,-1.32863 0.654655,-0.34659 0.327328,-0.65444 0.09627,-0.924 -0.346582,-0.40434 -0.750777,-0.26972 -1.001086,0.13463 -0.385092,0.6354 -0.808767,1.27095 -0.751002,2.07964 -0.558383,0.0385 -1.290131,0.0191 -1.039822,-0.73182 0.731673,-2.15651 -2.060086,-3.928 -0.615995,-6.14227 0.250309,-0.3851 -0.269639,-0.55809 -0.558457,-0.75063 -0.693164,-0.46211 -1.424687,-0.86669 -2.060087,-1.38656 -0.6354,-0.51987 -1.116914,-0.34635 -1.694551,0.13501 -1.617381,1.30931 -3.292602,1.02042 -4.409366,-0.84728 -0.361023,-0.60651 -0.743782,-0.95309 -1.269972,-0.93413 z m 44.748758,1.66523 c -1.0596,0.002 -2.12469,0.0199 -3.17888,0.13538 -3.8124,0.44285 -5.19887,2.19494 -4.96782,6.08435 0.19255,0.84721 -0.88571,2.42601 1.25154,2.23345 0.0385,-0.0192 0.23099,0.63541 0.21173,0.96274 -0.0385,0.8857 -0.77002,-0.50047 -0.90481,0.34673 0.32733,0.65465 2.3683,-0.46219 1.63664,1.46327 -0.0963,0.30807 0.51971,0.28867 0.80854,0.0384 0.21179,-0.19255 0.40465,-0.51988 0.59719,0 0.48136,1.34781 1.71336,1.23251 2.77235,1.48282 1.09751,0.65466 2.4263,-0.0195 3.50455,0.63517 1.54037,0.57765 1.79052,1.79068 1.48245,3.17701 -0.32732,1.4826 -1.57887,1.34797 -2.69564,1.40573 -0.57763,0.0385 -1.17437,-0.0193 -1.77126,0.0191 -1.2708,0.0578 -1.88694,-0.40418 -1.73291,-1.77126 0.077,-0.63539 0.40442,-1.63663 -0.50054,-1.82918 -0.86646,-0.19254 -2.02188,-0.46225 -2.65728,0.42345 -0.86645,1.19379 -1.00139,0.30822 -1.30946,-0.51972 -1.03975,1.86769 -0.48137,3.71612 -0.67391,5.48754 -0.11553,1.00124 0.32763,1.30939 1.2711,1.42491 3.23476,0.40435 6.48871,0.50062 9.74273,0.28882 1.25155,-0.0578 2.5992,-0.13507 3.69672,-0.98228 l 0.30799,-0.21173 c 2.59937,-1.88694 2.90767,-7.91368 0.42383,-9.99317 -1.00124,-0.88572 -2.25286,-1.59799 -3.54292,-1.19364 -0.84719,0.26957 -1.61752,-1.50171 -2.27218,0.0579 -1.38633,-2.07949 -2.2333,-0.77018 -3.04199,0.57764 -0.53913,-0.50063 -1.19378,-0.92422 -0.86646,-1.63664 0.46212,-0.96273 -0.26963,-1.15558 -0.751,-1.55992 -0.17329,-0.55838 -0.17344,-1.17453 0.0384,-1.73291 0.94347,-1.0975 2.23368,-1.17445 3.52374,-1.27072 0.71241,0.57764 2.44547,-0.67369 2.36846,1.19401 -0.0578,1.42483 0.48114,1.86739 1.79044,1.80962 0.69316,0 1.40565,0.0387 2.09882,0.13501 1.059,0.13478 1.48268,-0.25023 1.42491,-1.367 -0.077,-1.46334 0.0386,-2.92684 0.0771,-4.39019 h 0.0192 l -0.26964,-0.40426 -0.40427,-0.13501 c -2.42606,0.11553 -2.42622,0.1156 -2.17591,2.48391 0.0578,0.48136 -0.17321,0.9437 -0.59681,1.19401 -0.71243,0.4236 -0.78929,-0.46241 -1.19364,-0.69347 0.4236,-2.3683 -0.28888,-3.36954 -2.4839,-3.36954 -0.3514,0 -0.70392,-7.3e-4 -1.05713,-3.9e-4 z m -19.51215,0.17109 c -0.27738,-0.002 -0.558,0.0267 -0.842,0.0989 -0.34659,0.0963 -1.00117,-0.25015 -0.88564,0.63555 0.15403,1.02049 0.75085,0.4042 1.17445,0.42345 l 0.25046,0.65474 c -0.80869,0.53912 -1.48268,0.78928 -2.00254,-0.44301 -0.15405,-0.34658 -0.827881,-1.44409 -1.559557,-0.28882 -0.365829,-0.40434 -1.23213,0.53928 -1.386174,-0.51972 -0.01933,-0.17329 1.078031,-0.40419 -0.03875,-0.51972 -1.174527,-0.11553 -1.097358,0.67391 -1.097358,1.34782 0,0.67391 0.115455,1.21296 -0.943544,0.9819 0.211795,-0.34658 0.461957,-0.61629 0.519717,-0.92436 0.07703,-0.46211 0.327479,-1.29014 -0.423451,-1.23237 -0.712414,0.0385 -2.098578,-0.59659 -2.060072,0.50092 0.03847,1.19377 -1.482902,3.1576 1.135708,3.69672 0.539135,0.11552 0.365921,0.80869 0.365921,1.25154 0,3.36955 1.47e-4,6.75828 -0.03838,10.12782 0,0.40434 0.134699,1.05916 -0.269636,1.11691 -2.503095,0.42361 -0.92407,2.32966 -1.289909,3.50419 -0.192541,0.59688 0.365691,0.77025 0.904817,0.751 0.827942,-0.0193 1.655958,7e-5 2.4839,-0.0191 1.058999,-0.0385 1.848508,-0.61614 2.098818,-1.54036 0.173288,-0.61615 0.211647,-0.90512 0.808542,-0.53928 0.442848,0.26956 0.904958,0.63547 0.385091,1.23236 -0.154035,0.15404 -0.693317,0.0191 -0.346732,0.51972 0.231056,0.32733 2.888479,0.40458 3.004009,0.0387 0.40434,-1.15528 -0.19263,-2.2913 -0.17336,-3.46582 0.0192,-0.53913 -1.23245,-0.17352 -1.88711,-0.23128 l -0.11544,-0.0576 c -0.13479,-0.82794 -0.462114,-2.31048 0.19254,-2.32973 1.38633,0 2.65728,-1.00124 4.10137,-0.38509 1.13602,0.53912 2.11793,-0.69316 3.29245,-0.57763 0.0385,0 0.1347,-0.80878 0.21173,-1.23237 1.25154,0.48136 1.9256,-0.0963 2.27219,-1.25154 0.84719,-2.98446 1.00093,-5.93048 -0.30838,-8.83792 -1.059,-1.82918 -2.21412,-2.38765 -4.27435,-2.09882 l -0.8281,0.135 c -0.79425,-0.23105 -1.59911,-0.51641 -2.43127,-0.52272 z m 0.0335,3.86747 c 2.50558,0.007 2.97325,0.85013 2.82162,3.93327 -0.0192,0.51987 0,1.05922 0,1.57909 -0.96272,1.00124 -3.44671,1.59813 -4.67901,1.15527 -0.59688,-0.21179 -0.57763,-0.67398 -0.57763,-1.13609 0,-1.40557 0.0386,-2.83041 -0.0191,-4.236 -0.0385,-0.90496 0.36583,-1.19378 1.25154,-1.25154 0.44526,-0.0289 0.84472,-0.0451 1.20266,-0.044 z m -24.259966,0.71339 c 0.105383,-0.002 0.211275,3.9e-4 0.317776,0.005 3.234763,0.077 6.199889,3.33088 5.988089,6.58491 -0.192545,3.09997 -3.215435,5.94965 -6.276907,5.77636 -3.350292,-0.19255 -6.315643,-2.25255 -6.123097,-6.41153 0.130569,-3.30157 2.827305,-5.91659 6.094139,-5.95425 z m 0.817566,15.17725 c 0.140197,-0.004 0.255725,0.0863 0.32793,0.36554 0.05776,0.19254 -0.596816,0.80869 -0.981907,0.86645 -0.693164,0.11553 -0.519873,-0.71219 -0.770182,-1.21281 0.361023,0.85201 1.003568,-0.007 1.424159,-0.0192 z"
       id="_x23_124C6F"
       style="fill:#124c6f;fill-opacity:1;stroke-width:0.19254547"
       inkscape:connector-curvature="0"
       sodipodi:nodetypes="ccccccccccccccscccccccccscccccsccsccccsscccccccccccccccccccccccccccccccccccccccccccccsccccccccccscccccsccccccccccccccccccccccccccscccccccccccccc" />
  </g>
</svg>
