<?xml version="1.0" encoding="UTF-8" standalone="no"?>
<!-- Created with Inkscape (http://www.inkscape.org/) -->

<svg
   xmlns:dc="http://purl.org/dc/elements/1.1/"
   xmlns:cc="http://creativecommons.org/ns#"
   xmlns:rdf="http://www.w3.org/1999/02/22-rdf-syntax-ns#"
   xmlns:svg="http://www.w3.org/2000/svg"
   xmlns="http://www.w3.org/2000/svg"
   xmlns:sodipodi="http://sodipodi.sourceforge.net/DTD/sodipodi-0.dtd"
   xmlns:inkscape="http://www.inkscape.org/namespaces/inkscape"
   width="1920px"
   height="1080px"
   viewBox="0 0 1920 1080"
   version="1.1"
   id="SVGRoot"
   inkscape:version="0.92.3 (2405546, 2018-03-11)"
   sodipodi:docname="logo.svg">
  <sodipodi:namedview
     id="base"
     pagecolor="#ffffff"
     bordercolor="#666666"
     borderopacity="1.0"
     inkscape:pageopacity="0.0"
     inkscape:pageshadow="2"
     inkscape:zoom="0.7"
     inkscape:cx="680.37338"
     inkscape:cy="703.05425"
     inkscape:document-units="px"
     inkscape:current-layer="layer1"
     showgrid="false"
     inkscape:window-width="1373"
     inkscape:window-height="755"
     inkscape:window-x="67"
     inkscape:window-y="27"
     inkscape:window-maximized="1"
     inkscape:object-nodes="false"
     inkscape:measure-start="0,0"
     inkscape:measure-end="0,0"
     showguides="false"
     inkscape:snap-text-baseline="false" />
  <defs
     id="defs3729" />
  <metadata
     id="metadata3732">
    <rdf:RDF>
      <cc:Work
         rdf:about="">
        <dc:format>image/svg+xml</dc:format>
        <dc:type
           rdf:resource="http://purl.org/dc/dcmitype/StillImage" />
        <dc:title />
      </cc:Work>
    </rdf:RDF>
  </metadata>
  <g
     id="layer1"
     inkscape:groupmode="layer"
     inkscape:label="Layer 1">
    <path
       style="fill:none;stroke:#000000;stroke-width:1px;stroke-linecap:butt;stroke-linejoin:miter;stroke-opacity:1"
       d="M 637.40625,555.73083 C 639.42656,264.80689 783.87837,352.69017 783.87837,352.69017"
       id="path3993"
       inkscape:connector-curvature="0"
       sodipodi:nodetypes="cc" />
    <path
       style="fill:none;stroke:#000000;stroke-width:1.01439571px;stroke-linecap:butt;stroke-linejoin:miter;stroke-opacity:1"
       d="M 501.04264,558.76149 C 503.09013,269.53043 652.55729,292.09456 652.55729,292.09456"
       id="path3995"
       inkscape:connector-curvature="0" />
    <path
       style="fill:none;stroke:#000000;stroke-width:1px;stroke-linecap:butt;stroke-linejoin:miter;stroke-opacity:1"
       d="m 501.03566,382.99474 c 4.04061,-94.95434 137.38075,-80.8122 137.38075,-80.8122"
       id="path4003"
       inkscape:connector-curvature="0" />
    <path
       style="fill:none;stroke:#000000;stroke-width:1px;stroke-linecap:butt;stroke-linejoin:miter;stroke-opacity:1"
       d="M 501.03566,379.96429 C 442.44681,297.13178 606.09153,297.13178 606.09153,297.13178"
       id="path4007"
       inkscape:connector-curvature="0" />
    <path
       id="path4023"
       style="fill:#008050;stroke-width:1.01015258;fill-opacity:1"
       d="m 566.12891,320.47656 c -3.17837,0 -11.30241,0.50314 -18.05274,1.11914 -14.38518,1.31271 -16.48172,2.38944 -27.19336,13.95899 -10.33889,11.16696 -16.59304,25.26152 -18.51953,41.74219 -0.37344,3.19461 -1.0807,5.80859 -1.57226,5.80859 -0.49157,0 -0.89454,-0.72482 -0.89454,-1.61133 0,-0.88651 -0.91361,-2.89723 -2.03125,-4.4668 -1.11763,-1.56958 -3.73162,-6.41188 -5.80859,-10.76172 -3.58265,-7.50315 -3.77539,-8.4263 -3.77539,-18.00976 0,-8.66262 0.33654,-10.73607 2.36914,-14.54688 l 2.37109,-4.44336 -4.39062,0.60938 c -21.566,2.98809 -53.59965,19.58047 -81.71094,42.32422 -23.97179,19.39464 -54.24487,55.58931 -66.57812,79.59961 -12.10725,23.57033 -17.77108,49.6184 -18.94532,87.12305 l -0.57812,18.44335 c 1.15626,0.0602 2.32036,0.21136 3.49414,0.46485 l 6.48828,-0.0566 c 5.49887,-0.0487 10.92095,0.11606 13.5918,-0.25196 l 5.36133,0.0879 4.57617,-9.84961 c 11.34819,-25.51716 24.43059,-42.50928 35.00781,-45.47071 8.71447,-2.43991 16.55451,2.89489 23.47266,15.97071 3.83614,7.25058 8.55709,20.65757 10.74414,30.51171 l 1.68164,7.57618 37.21679,-0.27735 37.21876,-0.27734 0.66406,-15.38086 c 1.66874,-38.60868 4.73018,-66.96414 10.16601,-94.17188 10.6788,-53.45017 29.69565,-94.31793 56.05664,-120.46093 l 5.34766,-5.30274 z" />
    <path
       style="fill:#008050;stroke-width:1.01015258;fill-opacity:1"
       d="m 638.71245,535.97196 c 2.9168,-75.03141 14.56187,-125.64098 36.45236,-158.42227 2.96803,-4.44467 7.67738,-10.31095 10.46522,-13.03617 l 5.0688,-4.95496 8.5835,5.4061 c 18.62034,11.72754 23.54317,16.84251 43.5745,45.27519 29.17739,41.41468 35.49296,54.00237 42.45353,84.61479 4.19291,18.44033 6.16142,31.17506 7.10553,45.96724 l 0.68541,10.73914 -34.72754,0.60733 c -19.10014,0.33402 -53.99517,0.87897 -77.54451,1.21099 l -42.81697,0.60367 z"
       id="path4025"
       inkscape:connector-curvature="0" />
    <path
       style="fill:#ffe6d5;stroke-width:1.01015258"
       d="m 501.92294,550.84009 c 0.011,-9.69113 2.10271,-43.64518 3.58131,-58.13301 5.96547,-58.45177 20.58927,-106.98314 42.30965,-140.4112 6.43176,-9.8986 19.3761,-25.4631 24.29999,-29.21873 3.52205,-2.6864 3.91764,-2.75354 12.43024,-2.1098 16.04052,1.21302 34.78926,3.69284 42.14681,5.57459 7.68533,1.96557 35.61522,15.90828 52.54726,26.23179 l 9.45727,5.76612 -4.54158,4.45416 c -8.87191,8.70112 -18.15954,23.91241 -25.01414,40.9682 -13.01822,32.39224 -20.11866,74.46612 -22.41519,132.82193 l -0.66127,16.80295 -43.08165,0.62619 c -23.69491,0.34441 -53.87766,0.7602 -67.07278,0.92397 l -23.99112,0.29775 0.005,-4.59491 z"
       id="path4027"
       inkscape:connector-curvature="0" />
    <path
       style="fill:#ffe6d5;stroke-width:1.01015258"
       d="m 497.00662,371.73284 c -6.96798,-12.17876 -9.00823,-24.47752 -5.66629,-34.15676 2.97535,-8.6175 3.59963,-8.98746 18.73404,-11.10212 7.45891,-1.0422 15.08099,-2.11447 16.93796,-2.38281 3.33953,-0.48257 3.30428,-0.42189 -3.23674,5.57176 -11.6466,10.672 -18.46277,22.92707 -21.80576,39.20552 l -1.74381,8.49133 z"
       id="path4029"
       inkscape:connector-curvature="0" />
    <path
       id="path4031"
       style="fill:#ffe6d5;stroke-width:1.01015258"
       d="m 394.07617,503.61133 c -9.85835,-0.34266 -21.74457,12.46354 -33.83594,36.57226 -2.5078,5.00026 -5.27074,10.79742 -6.14062,12.88086 l -1.58203,3.78711 h 35.34961 35.34961 l -0.6875,-3.78711 c -1.40524,-7.7333 -6.68349,-23.98492 -10.18946,-31.37304 -4.16329,-8.7733 -11.48409,-16.77373 -16.32031,-17.83594 -0.63867,-0.14028 -1.28613,-0.2213 -1.94336,-0.24414 z" />
    <path
       id="path3917-7"
       style="fill:#1b81a8;fill-opacity:1;stroke-width:12.79273415"
       d="m 550.96094,166.67383 c -8.66069,19.67523 -15.91418,39.67029 -21.79883,59.88281 -8.17456,0.44774 -16.31147,1.51115 -24.39649,2.61133 -8.08501,1.21531 -16.13081,2.64788 -24.08789,4.51562 -10.43887,-18.06334 -21.79906,-35.12942 -34.33593,-52.24609 -10.5668,3.14701 -21.0955,6.48553 -31.38086,10.56641 -1.03621,21.3127 -0.4988,42.90751 1.13867,63.64453 -7.31744,3.62035 -14.71097,7.12556 -21.75977,11.2832 -7.2151,3.88899 -14.03352,8.40399 -20.91601,12.80469 -16.00371,-12.71597 -33.21107,-25.09815 -50.89063,-36.18945 -8.83978,6.66497 -17.26929,13.82864 -25.50781,21.19726 7.01042,20.50675 14.94256,40.00191 24.28125,58.98633 -5.75673,5.8079 -11.01543,12.08917 -16.29883,18.33203 -5.1171,6.37078 -10.13075,12.83245 -14.76172,19.57422 -19.85432,-6.30682 -39.77304,-11.25907 -60.59961,-15.45508 -5.67997,9.45383 -11.13055,19.06131 -16.04296,28.96289 13.75219,16.51542 28.42674,31.97029 43.8164,46.25977 -3.1726,7.53492 -6.01372,15.21049 -8.57226,22.96289 -2.45621,7.80357 -4.95033,15.60718 -6.72852,23.58984 -20.69865,1.29207 -41.39832,3.77272 -62.05859,7.45703 -2.03404,10.86103 -3.60608,21.8507 -4.55274,32.86524 18.72856,10.42608 38.10867,19.53383 57.56641,27.27343 -0.0765,8.15176 -0.202,16.31595 0.38086,24.45508 0.17856,-0.002 0.37887,8.5e-4 0.54883,-0.004 4.32008,0.005 8.63891,-0.0333 12.95898,-0.0156 3.57342,0.0335 7.15073,0.17194 10.72266,0.0254 l 10.5025,0.0988 c 1.50959,-0.18742 6.23384,-0.54933 7.74359,-0.73521 44.00586,-1.5706 32.27342,-0.90219 45.98284,-0.96092 -0.32834,-27.3915 2.54578,-59.17132 10.6483,-83.75979 9.54338,-29.12906 22.40705,-46.0844 41.89034,-69.78934 19.44496,-23.73052 46.29521,-43.76454 72.92969,-58.78321 26.59609,-14.9547 51.07068,-16.1741 81.54297,-20.49804 30.35716,-4.42629 42.17382,-3.74217 75.06252,0.0715 33.86047,4.79822 31.20116,7.59738 63.69139,21.78594 25.44475,17.19344 46.6301,23.95515 64.04101,49.08008 17.46209,25.12493 43.23314,57.50162 50.57618,87.42383 5.7459,24.07318 10.56208,44.24734 10.14062,66.97851 l 18.00821,0.82796 5.73377,0.50508 c 3.33335,-10e-4 10.9598,-0.25654 14.29314,-0.25054 3.39322,0.003 65.88062,-1.04415 69.27362,-1.01015 l 0.0995,-0.19139 c 19.86711,-5.1043 7.98124,-1.27057 27.49016,-8.70315 0.0512,-11.07851 -0.65314,-22.11828 -1.57422,-33.13282 -20.55792,-6.74177 -40.91102,-12.16599 -61.69922,-16.14453 -1.11296,-8.1106 -3.04378,-16.05532 -4.73242,-24.05078 -2.17476,-7.89312 -4.08023,-15.85131 -6.75391,-23.57812 16.95037,-11.99959 33.15772,-24.95876 48.86719,-38.9668 -4.00412,-10.29815 -8.40517,-20.47968 -13.41992,-30.33008 -21.40225,0.95945 -42.6622,3.40202 -63.29688,7.03516 -4.22161,-6.99762 -8.41756,-14.01986 -13.21484,-20.64649 -4.567,-6.78015 -9.65976,-13.19025 -14.71289,-19.625 11.23202,-17.15505 21.84965,-35.32134 31.34179,-54.03711 -7.48374,-8.16176 -15.377,-15.87416 -23.44921,-23.42187 -19.80316,8.92933 -38.45336,18.56124 -56.50391,29.62695 -6.31961,-5.18106 -13.04875,-9.83807 -19.72656,-14.55859 -6.8569,-4.45187 -13.70131,-8.90339 -20.86524,-12.86914 4.43908,-20.35324 7.58549,-40.68037 9.82422,-61.75 -9.93995,-4.83565 -20.00829,-9.37712 -30.33203,-13.33008 -15.1338,15.12101 -29.2435,31.32834 -42.02344,47.84375 -7.82916,-2.37945 -15.69614,-4.60374 -23.66601,-6.36914 -7.96987,-1.84215 -16.00376,-3.39055 -24.10156,-4.55469 -3.22377,-20.37882 -7.61183,-40.89816 -13.18946,-61.07226 -11.01454,-1.10018 -22.10636,-1.45967 -33.14648,-1.49805 z"
       inkscape:connector-curvature="0"
       sodipodi:nodetypes="cccccccccccccccccccccccccccccccccccccccccccccccccccccccccccccccccc" />
    <path
       id="path3915-6-5"
       d="m 322.53397,349.7297 -11.5861,-15.98378 33.864,-6.04263 -5.3458,19.0051 -8.1714,1.43771 z m -2.8658,-65.02157 c 26.9806,-4.81414 44.9492,-30.58743 40.135,-57.56618 -4.8141,-26.98067 -30.5893,-44.94922 -57.568,-40.13508 -26.9807,4.81413 -44.9492,30.58743 -40.1351,57.56809 4.8141,26.97875 30.5894,44.94731 57.5681,40.13317 z m -54.9959,-40.59193 c -4.5608,-25.56023 12.4614,-49.97835 38.0217,-54.53911 25.5602,-4.56076 49.9763,12.4634 54.5371,38.02362 4.5608,25.55831 -12.4614,49.97643 -38.0217,54.53719 -25.5602,4.56076 -49.9764,-12.46147 -54.5371,-38.0217 z m 52.418,26.14184 c 18.9974,-3.38986 31.6508,-21.53885 28.2609,-40.53818 -3.3898,-18.99934 -21.5388,-31.65084 -40.5381,-28.26099 -18.9974,3.38986 -31.6508,21.53885 -28.261,40.53627 3.3899,18.99933 21.5389,31.65276 40.5382,28.2629 z m -64.3574,64.14627 c -4.6855,-3.3054 -9.3999,-6.56857 -14.1103,-9.8375 1.5375,-6.42269 1.3091,-16.52509 4.3304,-22.48709 l 0.042,-0.0691 c -9.2866,-9.27317 -15.7266,-20.8056 -20.629,-32.87549 l -3.2613,0.58161 -19.0032,-5.34392 c -0.977,-5.64913 -2.0001,-11.29058 -3.0213,-16.93202 5.8853,-3.60101 12.544,-10.84141 19.2623,-12.91448 0.021,-12.86074 2.983,-25.47385 7.9833,-37.27694 -2.8486,-2.361 -4.4206,-5.82764 -6.1405,-9.02362 -3.0924,-5.7451 -2.6298,-4.87365 -5.7797,-10.58803 3.3035,-4.68553 6.5686,-9.39794 9.8356,-14.10842 1.1786,0.18619 2.3533,0.38198 3.5319,0.55666 4.5608,0.67375 14.3829,1.45499 18.7325,3.66051 9.2463,-9.55342 20.821,-16.24484 33.0272,-21.26244 -1.5971,-8.95069 -0.668,-1.66614 4.9043,-21.47551 11.4902,-2.02508 5.8468,-1.01734 16.932,-3.02131 12.0776,16.65945 10.4307,9.50351 12.0277,18.45419 13.2811,-0.0499 26.2397,3.26893 38.3595,8.53416 2.7602,-3.09618 6.7432,-4.76615 10.3308,-6.68951 3.9753,-2.13257 5.1347,-2.79097 9.0831,-4.97345 4.6856,3.30348 9.3999,6.56857 14.1104,9.83558 -0.6987,4.40336 -1.2976,8.82976 -1.4992,13.28494 -0.063,1.40893 0.056,2.90807 -0.4549,4.25364 -0.6142,1.62199 -1.9425,3.09042 -2.9234,4.49358 9.3135,9.23862 15.9492,20.66355 20.8709,32.73537 3.7622,-0.3935 7.3978,0.96167 10.9527,2.027 6.2269,1.86769 5.3286,1.59128 11.5747,3.39946 0.9751,5.65105 2.002,11.29057 3.0213,16.93202 -3.6145,2.63165 -7.1867,5.33816 -10.4883,8.35564 -1.0442,0.954 -2.0481,2.10186 -3.3764,2.68731 -1.6296,0.71598 -3.649,0.81964 -5.3804,1.12676 0.046,13.11219 -2.9061,25.98636 -8.0005,38.0217 2.8486,2.361 4.4206,5.82956 6.1386,9.02363 3.0923,5.7451 2.6317,4.87364 5.7816,10.58803 -3.3054,4.68553 -6.5686,9.39986 -9.8356,14.10842 -1.1786,-0.18427 -2.3533,-0.38198 -3.5319,-0.55474 -4.5608,-0.67375 -14.3829,-1.45691 -18.7325,-3.66051 -9.2463,9.5515 -20.821,16.24484 -33.0271,21.26244 l 0.4415,2.47042 -33.8641,6.04262 -0.4415,-2.47041 c -2.9848,0.0326 -5.9485,-0.24378 -8.918,-0.47796 -10.4575,-0.89065 -20.462,-4.21333 -30.05,-8.33068 l -1.5893,2.27846 z"
       inkscape:connector-curvature="0"
       style="fill:#ffde4b;stroke-width:1.91951251;fill-opacity:1" />
    <path
       id="_x23_1B81A8"
       class="st0"
       d="m 865.19996,631.00469 c 0.078,-2.02535 -1.40221,-2.57064 -3.11596,-3.34961 -5.06333,-2.33693 -7.0887,-6.9329 -7.55607,-12.30786 -0.46737,-5.37495 -1.71373,-9.58142 -9.6593,-3.1159 8.80243,-13.86577 1.55789,-24.77147 -3.89495,-33.72972 -3.03799,-4.98546 -5.37496,-7.86767 -3.66121,-13.47631 0.54535,-1.79165 -0.93476,-4.59598 -3.11587,-4.51807 -7.55606,0.31158 -15.42375,-2.72643 -22.6683,1.71374 -1.79162,7.0108 -3.7391,14.02161 -7.16657,20.56502 -0.23374,1.40216 -0.46737,2.80432 -0.85687,4.20648 -2.64849,7.94558 -4.8296,16.04695 -8.25718,23.60299 -3.03798,6.69921 -1.01263,16.67014 -11.45092,19.00708 -0.23384,0.0779 -0.15576,1.09054 -0.31162,1.63584 -2.10323,10.12673 0.23374,12.85314 10.59406,12.61944 4.59606,-0.0779 9.19202,-0.38949 13.71,0.078 7.40032,0.85687 8.9583,-2.41482 9.03617,-9.34773 0.15587,-8.41297 -6.3097,-4.36229 -10.20455,-6.69922 2.02525,-3.81698 0.3895,-10.04881 8.02345,-9.73722 5.14121,0.15573 10.36041,0.38948 15.50163,0.23376 5.53081,-0.23376 5.84232,4.28439 6.38767,7.55609 0.7789,4.36226 -3.27171,3.03801 -5.45293,2.9601 -4.36223,-0.15575 -4.75172,2.41484 -4.36223,5.53073 0.3895,3.34962 -1.71373,8.72458 3.7391,9.11405 9.42566,0.70108 19.00709,0.15577 28.97801,0.15577 -1.8696,-5.21916 -8.41305,-5.68655 -6.30971,-12.07419 1.94738,0.93477 2.64848,2.96013 3.97274,4.36228 1.94747,2.02536 4.59595,4.90758 7.24454,3.19381 2.41475,-1.55794 0.85687,-5.37493 0.85687,-8.17925 z m -35.59932,-24.61573 c -18.30598,-0.38947 -18.46183,5.21917 -8.25718,-22.27873 5.99809,6.54342 5.37495,15.03429 9.97092,21.11029 -0.93475,0.62319 -1.32425,1.16844 -1.71374,1.16844 z m 104.3051,-45.88174 c -3.27163,-0.5453 -6.85499,-0.38951 -4.98545,4.75174 l -1.79159,1.24638 c -2.57068,-6.46552 -8.10141,-6.62131 -13.63213,-5.92025 -3.66121,0.46739 -1.8696,4.12861 -2.33697,6.38764 -1.24636,6.30971 0.77899,10.2046 8.72455,9.73722 -2.64849,4.20648 -4.67384,7.32238 -6.54344,10.43831 -2.02525,3.42748 -3.89484,7.01081 -5.76435,10.51619 v 0.078 c -3.66121,0.15574 -3.73909,-3.97281 -6.23182,-5.21917 l -0.77899,-1.63583 c -3.27172,-6.38765 -8.72456,-12.38577 -0.46738,-19.31866 2.18112,-1.86955 0.3895,-4.75178 -2.5707,-5.84235 l -0.15576,-0.15575 c -1.01263,-4.67387 -12.77517,-8.33505 -15.73527,-3.97281 -2.96011,4.36229 -2.57061,2.10326 -5.14121,0.15575 -3.50546,-2.57064 -8.10143,0.54529 -12.30789,0.0779 0.77899,4.82964 -2.10324,10.59408 3.89485,13.86579 l -0.62313,-4.36228 c -1.32425,-1.01266 -1.79162,-2.49271 -0.31162,-3.19381 1.01273,-0.46738 1.40213,1.09058 1.40213,2.18115 0.46747,0 0.85686,0.078 1.24636,0.3895 0.23384,1.71373 1.55798,2.10323 2.9602,2.25903 l 0.15566,-0.15576 -0.15566,0.15576 c 1.01263,5.06334 -2.25909,3.11589 -4.51808,2.88222 l 11.5288,15.89116 h -0.078 c 0.77899,2.88221 1.55798,5.84232 4.67394,7.24448 v 0.0779 c 2.10325,3.7391 4.90759,7.32235 6.07597,11.29516 1.79172,6.23183 6.30981,12.93101 -2.88222,18.38389 -3.03798,1.79164 -4.98546,7.71187 -3.66112,12.46363 1.32424,4.90755 5.76435,2.57061 8.80243,2.88223 5.14122,0.38948 10.36041,0.078 15.50163,0.078 14.8006,0.0778 14.87846,0.0778 14.33325,-14.17741 0,-0.38949 -0.70111,-0.70109 -1.32434,-1.32425 -2.02526,1.55794 -1.01263,6.2318 -6.15385,5.21915 2.9601,-3.817 -0.31161,-6.85502 -0.85686,-10.36041 -1.63587,-9.97093 1.16837,-16.12486 8.49081,-24.84938 5.3749,-6.3876 8.02344,-16.82592 14.56689,-20.09763 8.49075,-4.28438 5.37494,-9.89302 5.4528,-14.80057 0.078,-5.92024 -5.60862,-2.80431 -8.80248,-3.27171 z m -45.80384,77.97565 c -0.38949,-0.15574 -1.0906,-0.38948 -1.16848,-0.62318 0,-0.77898 0,-1.55797 0.15575,-2.33695 0.70112,0.38949 1.40223,0.54529 1.40223,0.77898 0,0.70109 -0.15586,1.48007 -0.3895,2.18115 z M 773.5921,584.57761 c -3.58333,-16.90382 -11.68465,-23.60301 -28.04315,-23.91462 -11.9184,-0.23377 -23.91467,0 -35.83306,0.15575 -3.11587,0 -7.7897,-1.71374 -7.24445,4.05068 0.46737,4.82967 -3.7391,12.30786 6.07596,12.85315 0,5.45283 -0.3894,10.90566 0.078,16.28063 0.62322,6.9329 -2.18112,14.17738 1.71383,20.87656 -0.15576,3.6612 5.37496,7.86768 -0.85687,11.13939 -0.15575,0.0779 0.23374,1.55797 0.54525,2.33693 1.24637,3.50542 -1.0906,4.67387 -3.42747,3.66121 -5.45293,-2.33691 -4.44021,1.55795 -4.20647,4.05069 0.23374,2.96013 -1.79172,8.02348 3.97273,7.71186 17.60486,-1.09054 35.59932,2.80433 52.73681,-4.12857 1.94748,1.16848 3.3496,0.70109 4.12859,-1.55794 l 1.24637,-1.16847 c 5.37495,-0.078 5.2192,-3.27171 3.42747,-6.77711 -1.01262,-1.94744 -2.88222,-3.50541 -2.49272,-6.07602 l 0.46737,-0.0779 0.15576,-0.3895 3.19384,-1.48005 c 1.71374,0.15573 3.58334,0.62315 3.97284,-1.79166 1.86949,-11.91837 2.80424,-23.91459 0.38938,-35.75507 z m -19.47446,7.24452 c -1.16848,7.86767 -1.01262,15.96899 -1.55798,23.91456 -0.70101,10.98361 -9.34768,16.67015 -19.94173,13.39845 -3.03809,-0.93478 -2.96021,-3.11593 -2.96021,-5.37496 -0.0779,-7.16659 0,-14.33319 0,-21.49977 0,-5.14124 -0.3895,-10.3604 0.15576,-15.42376 0.31162,-3.66119 -2.57061,-9.03612 2.64849,-10.51619 5.37505,-1.48005 11.76263,-1.86955 16.3586,2.33694 3.66121,3.2717 6.23182,7.32238 5.29707,13.16473 z m -331.2214,-21.8893 c -1.48011,-2.64852 -2.64849,-4.36226 -0.078,-7.16658 1.32425,-1.48006 -0.46737,-3.34962 -2.49272,-2.88222 -7.55607,1.79164 -15.03426,-0.93478 -22.51245,-0.078 -1.24637,0.15573 -3.27172,-0.54529 -3.19384,1.55796 0.078,1.55794 1.32425,1.86954 3.03799,1.79164 4.4402,-0.23376 7.7898,4.44016 13.08687,2.18113 -0.62323,4.90758 -4.28435,3.9728 -6.62132,5.29705 -8.17929,4.51807 -10.20465,0.31159 -11.29516,-6.62131 -0.23374,-1.55796 -0.078,-3.4275 -1.55798,-4.59596 l -2.57061,0.93477 c 0.078,2.18112 -0.31161,4.44016 0.38949,6.38762 1.40213,3.97279 -0.23373,10.12673 7.47819,9.65934 3.89486,-0.23377 1.71375,3.1159 1.09052,4.75173 -3.66112,8.95825 -4.59597,18.69547 -8.9582,27.42003 -4.59596,9.11402 -3.89495,18.30598 0.46738,27.3421 1.32424,2.80432 2.57061,5.68654 1.79162,8.95826 1.0906,1.32425 2.49272,0.62319 2.80434,-0.31159 2.02535,-6.62131 5.76445,-12.77525 6.46557,-19.86395 -0.62324,-3.81699 2.64848,-5.76441 4.12858,-8.49086 v -0.078 c 1.55789,-7.01081 3.89486,-13.78791 7.01071,-20.2534 2.57071,-7.01081 1.79172,-15.73535 10.28254,-19.86397 2.10324,-1.32426 2.10324,-4.44014 1.24637,-6.07601 z m -30.53599,38.48148 c 4.8297,1.55796 4.8297,1.55796 6.3098,8.64668 -1.0906,-3.66122 -3.73909,-6.15394 -6.3098,-8.64668 z m -16.67011,-7.24445 c -2.10324,-8.41295 -6.15395,-16.43644 -6.07597,-25.39469 h 0.70101 l 0.70111,-0.23376 c 2.72647,0 6.38758,1.94745 7.86769,-0.85687 1.55798,-3.038 -0.3895,-6.46552 -2.80435,-8.95825 -0.54525,-0.46739 -1.09051,-0.93478 -1.71373,-1.32426 -0.31162,-3.50538 -2.10325,-5.14125 -5.76446,-4.59597 -4.98546,0.77897 -3.11586,5.06336 -3.58324,9.11406 -1.79171,-2.25906 -2.9602,-4.67388 -3.73909,-4.51809 -8.49092,1.40216 -2.10324,-2.9601 -1.94747,-4.82964 l -2.72647,-0.23378 c -3.50536,0.15576 -7.08869,0.70111 -10.51618,0.31158 -5.68656,-0.54525 -7.94556,1.40218 -6.54343,7.08871 -0.15576,4.59597 -2.96011,10.04883 5.29707,11.37308 1.16849,0.15576 7.71193,2.57063 5.84233,6.54342 -1.55798,3.34961 -0.31162,5.45284 0.46737,8.02349 2.02536,7.01079 6.77718,13.00889 7.40032,20.72077 0.31162,4.20647 4.20646,7.24449 4.98545,11.84046 1.09061,6.07604 2.41485,12.46364 5.6087,17.52703 4.20646,6.62129 11.99617,1.16844 17.83849,3.03798 0.46748,0.0781 0.93486,0.15576 1.40223,0.23379 0.93475,-2.41484 -0.078,-4.596 -0.70111,-6.93294 -3.27172,-12.85312 -8.88031,-25.08308 -11.99627,-37.93617 z m -8.5687,21.34396 6.38758,18.46177 c -6.3097,-4.67387 -5.60859,-11.84045 -6.38758,-18.46177 z M 246.76931,592.99058 c -1.32425,-19.24076 -1.79163,-28.35479 -24.38201,-32.79497 -3.73909,-0.77898 -8.17929,-1.71376 -9.81512,3.73909 -2.02535,0 -4.05067,0.078 -5.76445,-1.40216 -3.73909,-3.58329 -18.07228,-3.97278 -21.88927,-0.54528 -1.24635,1.16848 -2.96013,3.11593 -3.66119,1.01266 -1.86955,-5.53073 -5.76445,-2.33693 -8.80245,-2.72641 1.24636,6.4655 -3.9728,14.80057 5.60864,18.85128 0.62316,0.23376 0.62316,2.25903 0.62316,3.42748 0,13.94373 0,27.8095 -0.078,41.75319 0,1.79166 0.54525,4.51807 -2.33694,4.28439 -4.44019,-0.31158 -3.66123,2.72642 -3.73909,5.21915 -0.15574,3.58329 -0.15574,7.16659 -0.23377,10.8278 l 1.40216,0.078 c 14.80057,0.15575 29.60116,0.54529 44.32385,0.31161 19.08494,-0.38948 26.17366,-7.1666 28.2769,-26.25156 1.01267,-8.56877 1.16846,-17.21538 0.46738,-25.78414 z M 212.1827,629.9141 c -9.89303,0.70111 -10.12674,0.70111 -10.98361,-8.72454 -0.31158,-3.42751 -1.94745,-3.03803 -4.20648,-2.96013 -1.01268,0.15576 -2.02532,-0.54528 -2.18113,-1.55796 v -0.62316 c 0,-1.01268 0.77897,-1.79164 1.79164,-1.86954 0.23378,0 0.54529,0.0779 0.77897,0.15574 5.14125,2.02534 3.58333,-2.10322 3.58333,-4.12857 0.15574,-9.5814 0.31158,-19.16283 0,-28.74426 -0.15576,-4.82966 1.55792,-5.99811 6.2318,-6.07602 7.40032,-0.0779 13.94373,0.38948 16.82592,8.64664 0.779,0.078 1.48007,0.23377 2.18116,0.46739 -0.70109,-0.23377 -1.48007,-0.38949 -2.18116,-0.46739 1.24638,2.49275 0.54529,4.98548 0.70109,7.55609 0.38949,7.40029 -2.72641,15.11215 1.94746,22.04505 0.62315,7.16662 -6.93289,15.73535 -14.48899,16.28063 z m 14.56689,-45.10277 c 0.0779,0 0.15575,0.0778 0.23376,0.15576 -0.078,0 -0.15574,-0.078 -0.23376,-0.15576 z m 101.5008,40.89629 c 2.33697,19.24076 2.18112,19.31866 -16.98172,19.31866 -12.22991,0 -24.45992,-0.15573 -36.68984,-0.23376 -1.63586,0.0779 -3.34959,0.31162 -4.98545,0.23376 -1.63587,-0.0779 -4.75172,0.85688 -4.44021,-1.86954 0.38949,-3.1938 2.64859,-1.01267 4.36232,-0.54528 2.18112,0.62319 3.34961,-1.01268 3.19374,-2.72643 -0.31151,-3.03802 -2.02525,-5.21915 -5.45282,-5.21915 -2.18112,0 -4.518,2.33693 -6.38758,-0.85688 2.96009,-2.33692 5.60868,-4.05069 4.67383,-9.65934 -0.85687,-4.90755 -4.36223,-12.46363 3.58334,-16.20273 0.62313,-0.38949 0.85687,-1.24635 0.46738,-1.86955 -0.15577,-0.23377 -0.31162,-0.38948 -0.46738,-0.46738 -7.24455,-4.51804 -2.88223,-11.68465 -4.12859,-17.52696 -0.93474,-4.20649 2.88222,-10.36042 -5.29707,-11.68468 -1.71375,-0.23376 -0.93478,-3.4275 -1.01268,-5.29704 -0.15574,-3.34963 -0.31158,-6.69924 -0.46739,-9.97094 0.31162,-0.38948 0.46739,-0.77897 0.54529,-1.24635 2.49276,-0.77897 3.42751,2.02535 5.53074,2.25902 10.59415,-1.32425 21.26608,-3.1159 31.93811,-2.02534 3.58334,0.38951 7.16657,-1.32427 10.59415,0.46738 1.01263,0.779 0.38949,3.34961 2.41474,2.88223 1.79173,-0.38949 1.09061,-2.33694 1.32435,-3.6612 2.64849,-0.6232 3.66112,2.18114 5.76435,2.72642 2.49274,-5.14126 6.93294,-2.49272 10.4384,-2.25903 3.34959,0.23376 2.33687,3.66119 2.33687,5.84235 0.0779,6.46551 -0.31162,12.93103 0.0779,19.31862 0.31161,4.90759 -1.55799,6.38765 -6.15394,5.92026 -2.88224,-0.31161 -5.68648,-0.31161 -8.5687,-0.078 -4.28445,0.46738 -6.23183,-0.93478 -5.92031,-5.45286 0.23374,-3.34958 -0.15576,-6.6992 -0.23363,-10.0488 -0.93476,-0.078 -1.8696,-0.15575 -2.88224,-0.15575 -18.85132,-0.38949 -18.85132,-0.38949 -17.91647,18.85127 1.40212,0.078 2.80424,0.15576 4.28435,0.15576 9.50354,0.0779 12.07414,3.34957 9.58142,12.77518 -1.32424,4.98549 -5.2191,2.41484 -8.17931,2.49275 l -5.53071,0.38947 c 0.3895,6.69922 -3.34959,14.02161 2.88223,19.94183 1.40212,-0.0779 2.88222,-0.23377 4.28434,-0.23377 13.08689,-0.31157 13.24265,-0.31157 13.63214,-13.47631 0.078,-3.11594 0.77899,-4.28438 3.97283,-4.0507 4.75173,0.31161 10.20456,-1.16846 14.25527,0.54529 5.76444,2.41483 1.01262,8.33505 1.55798,12.69734 z"
       inkscape:connector-curvature="0"
       style="fill:#1b81a8;stroke-width:0.77897787"
       sodipodi:nodetypes="ccsccccccccccccccccccccccccsccccccccccccccccccccccccccccccccccccccccccccccccccccscccccccccccccccccccccccccccccscccccccccccccccccccccccccccccccccccccccccccccccccccccccccccccccccccccscccccccccccccsccccccccccccccccscccccscccccccccccccccccccccscccccccscccccc" />
    <path
       d="m 474.3162,551.88284 c -0.70961,0.0265 -1.4831,0.2158 -2.33997,0.58576 -4.36222,1.94742 -11.84101,-0.15633 -11.91898,7.55548 -0.078,5.14126 -2.72637,7.1672 -6.62133,8.80307 l -0.15516,0.0774 c -2.88222,3.89489 -5.9196,2.96012 -9.11345,0.38948 l -0.15665,-0.0778 -4.28445,0.31037 c -1.40212,2.49273 -2.5706,5.14125 -4.28435,7.40028 -3.19384,4.12858 -4.59536,7.32334 0.23434,11.84138 4.44011,4.20649 0.46708,13.55361 -6.15425,16.12425 l -1.94747,1.01327 -1.16849,3.81729 0.3895,2.95922 c 0.54535,1.01267 1.55798,2.10292 1.55798,3.19349 0,6.30972 3.27232,8.80245 9.19253,8.56878 1.71374,-0.0779 3.42688,0.23465 3.66062,2.49362 l 2.10263,2.95922 c 0.46737,0.0779 0.77899,0.54558 0.77899,1.09087 1.86949,1.09058 3.11616,3.19471 2.25929,4.83058 -4.05061,7.63397 1.48011,10.74866 6.23182,14.33199 3.27173,1.55792 6.46616,3.73967 9.58203,-0.54468 5.14131,-7.0108 10.20435,-2.25906 15.26769,0.38948 1.71374,2.02532 2.88283,4.51777 3.3502,7.08838 3.89495,2.18116 7.39971,-0.93416 11.06092,-0.93416 4.98546,0 6.6998,-2.80494 7.24505,-7.63457 0.93485,-8.64666 6.93204,-11.99537 15.42286,-9.19105 1.40221,0.46738 3.11566,1.55796 3.97253,0.38949 3.03798,-3.66121 5.76505,-7.63488 8.02404,-11.84136 1.55798,-3.03803 -1.63526,-5.06247 -3.27112,-7.2436 -2.88223,-3.8949 -2.49333,-11.14059 0.93425,-14.10072 6.85495,-5.92022 6.85526,-6.2315 -0.85658,-11.37276 1.55789,-1.86955 2.80365,-4.2847 4.82901,-5.37526 2.64849,-1.40216 1.32424,-2.64762 0.38949,-3.73818 -1.40212,-1.63587 -3.03738,-1.09119 -4.05011,0.54468 -1.55788,2.5706 -3.27202,5.14187 -3.03828,8.41357 -2.259,0.15575 -5.21949,0.0775 -4.20676,-2.96075 2.9601,-8.72454 -8.33447,-15.89144 -2.49214,-24.84969 1.01263,-1.55797 -1.09091,-2.25782 -2.25939,-3.03679 -2.80425,-1.86955 -5.76375,-3.50633 -8.33445,-5.60956 -2.57062,-2.10325 -4.51859,-1.40125 -6.85556,0.54621 -6.54345,5.29703 -13.32082,4.12829 -17.83891,-3.42781 -1.4606,-2.45379 -3.00909,-3.85595 -5.13792,-3.77925 z m 181.03931,6.73695 c -4.28685,0.006 -8.59579,0.0804 -12.86074,0.54771 -15.42375,1.79165 -21.03305,8.88005 -20.09819,24.6154 0.77899,3.42751 -3.58334,9.81483 5.06333,9.03583 0.15576,-0.078 0.93445,2.57065 0.85657,3.8949 -0.15575,3.58329 -3.11526,-2.02473 -3.66061,1.40277 1.32424,2.64852 9.58142,-1.86986 6.62132,5.91993 -0.3895,1.24636 2.10263,1.16787 3.27112,0.15517 0.85687,-0.779 1.63706,-2.10325 2.41605,0 1.94748,5.45283 6.93163,4.98635 11.21608,5.99904 4.4401,2.64851 9.81606,-0.0789 14.17829,2.56969 6.23182,2.33694 7.24385,7.24452 5.99748,12.85316 -1.32424,5.99812 -6.38758,5.45345 -10.90566,5.68713 -2.33698,0.15574 -4.75112,-0.0782 -7.16598,0.0774 -5.14132,0.23376 -7.63395,-1.63522 -7.01081,-7.166 0.31162,-2.5706 1.63616,-6.62128 -2.02506,-7.40028 -3.50535,-0.77897 -8.1798,-1.87013 -10.7505,1.71315 -3.50536,4.82968 -4.05132,1.24698 -5.29768,-2.10263 -4.20647,7.55609 -1.94738,15.03428 -2.72637,22.20089 -0.46737,4.05067 1.32544,5.29735 5.14242,5.76474 13.08688,1.63583 26.25134,2.02532 39.416,1.16845 5.06344,-0.23377 10.51557,-0.5465 14.95578,-3.97401 l 1.24606,-0.85658 c 10.51617,-7.63396 11.76353,-32.01628 1.71464,-40.42924 -4.05061,-3.58328 -9.11435,-6.46491 -14.33345,-4.82906 -3.42748,1.09059 -6.54404,-6.07543 -9.19262,0.23437 -5.6086,-8.41297 -9.03517,-3.1159 -12.3069,2.33693 -2.18111,-2.02535 -4.8297,-3.73909 -3.50535,-6.62131 1.86949,-3.89491 -1.09091,-4.67508 -3.03838,-6.31095 -0.70101,-2.25903 -0.70171,-4.75177 0.15516,-7.01081 3.81697,-4.44014 9.03676,-4.75144 14.25597,-5.14092 2.88212,2.33694 9.89363,-2.72554 9.58201,4.83055 -0.23374,5.76445 1.94648,7.55489 7.24355,7.32118 2.80435,0 5.68687,0.15663 8.49112,0.5462 4.28445,0.54529 5.99849,-1.01235 5.76475,-5.53045 -0.31151,-5.92021 0.15605,-11.84106 0.31192,-17.76128 h 0.078 l -1.09081,-1.63555 -1.63556,-0.54619 c -9.81516,0.46738 -9.81576,0.46767 -8.80303,10.04911 0.23374,1.94746 -0.70081,3.81789 -2.41455,4.83057 -2.88223,1.71377 -3.19324,-1.87075 -4.8291,-2.80553 1.71373,-9.58142 -1.16879,-13.63212 -10.0491,-13.63212 -1.42162,0 -2.84784,-0.003 -4.27675,-0.002 z m -78.93997,0.69224 c -1.1222,-0.009 -2.25749,0.10805 -3.40649,0.40014 -1.40211,0.38949 -4.0504,-1.01205 -3.58303,2.57124 0.62324,4.12857 3.03778,1.63524 4.75152,1.71314 l 1.01323,2.64884 c -3.27172,2.18114 -5.99838,3.19319 -8.10162,-1.79225 -0.62323,-1.40216 -3.34929,-5.84236 -6.3095,-1.16848 -1.48001,-1.63585 -4.98476,2.18174 -5.608,-2.10261 -0.0779,-0.70109 4.36133,-1.63526 -0.15665,-2.10264 -4.75172,-0.46739 -4.43951,2.72641 -4.43951,5.45283 0,2.72643 0.46708,4.90726 -3.81727,3.97248 0.85687,-1.40215 1.8689,-2.49332 2.10254,-3.73968 0.31161,-1.86955 1.32494,-5.21948 -1.71314,-4.98577 -2.88213,0.15574 -8.49022,-2.41363 -8.33437,2.02655 0.15577,4.82965 -5.99938,12.77464 4.59477,14.95577 2.18112,0.46739 1.4803,3.2717 1.4803,5.06335 0,13.63213 6e-4,27.34184 -0.15515,40.97393 0,1.63587 0.54495,4.28501 -1.09081,4.51868 -10.12677,1.71378 -3.7385,9.42505 -5.2186,14.17679 -0.77899,2.41484 1.47951,3.11623 3.66062,3.03833 3.3496,-0.0779 6.6995,3.2e-4 10.04909,-0.0774 4.28435,-0.15574 7.47849,-2.4927 8.49112,-6.2318 0.70111,-2.49274 0.85627,-3.66181 3.27112,-2.18174 1.79162,1.09054 3.66121,2.57091 1.55798,4.98573 -0.62324,0.6232 -2.80494,0.0774 -1.40282,2.10264 0.93474,1.32425 11.68596,1.63678 12.15333,0.15663 1.63586,-4.67387 -0.77929,-9.26982 -0.70141,-14.0216 0.078,-2.18113 -4.98606,-0.70201 -7.63465,-0.93569 l -0.46707,-0.23287 c -0.54525,-3.34962 -1.8695,-9.34745 0.77899,-9.42535 5.60869,0 10.7505,-4.05068 16.59283,-1.55794 4.59597,2.18113 8.5685,-2.80433 13.32022,-2.33693 0.15576,0 0.54506,-3.27203 0.85657,-4.98578 5.06334,1.94746 7.79041,-0.38947 9.19253,-5.06335 3.42758,-12.07415 4.04951,-23.99282 -1.24757,-35.7554 -4.28435,-7.40028 -8.95759,-9.65963 -17.29264,-8.49114 l -3.3502,0.54617 c -3.21333,-0.93478 -6.46947,-2.08925 -9.83616,-2.1148 z m 0.13546,15.64652 c 10.13678,0.0309 12.02877,3.43935 11.41533,15.91276 -0.0779,2.10323 0,4.28527 0,6.38852 -3.89484,4.05069 -13.94424,6.46552 -18.9298,4.67387 -2.41475,-0.85687 -2.33688,-2.72674 -2.33688,-4.59629 0,-5.68651 0.15606,-11.45096 -0.077,-17.13751 -0.15576,-3.66118 1.48,-4.82967 5.06333,-5.06334 1.80142,-0.11689 3.41749,-0.18254 4.8656,-0.17813 z m -98.14819,2.88616 c 0.42639,-0.006 0.85477,0.002 1.28565,0.0177 13.08678,0.31158 25.08276,13.47569 24.22589,26.64044 -0.77899,12.54153 -13.0086,24.07041 -25.39438,23.36932 -13.55415,-0.77897 -25.55102,-9.11312 -24.77213,-25.93904 0.52825,-13.35705 11.43842,-23.93659 24.65497,-24.08898 z m 3.30761,61.40232 c 0.56724,-0.0147 1.03462,0.34933 1.32674,1.47886 0.23364,0.77896 -2.41455,3.27171 -3.97253,3.50539 -2.80425,0.46739 -2.10324,-2.88128 -3.11586,-4.90664 1.4606,3.44698 4.0601,-0.0301 5.76165,-0.0778 z"
       id="_x23_124C6F"
       style="fill:#124c6f;fill-opacity:1;stroke-width:0.77897787"
       inkscape:connector-curvature="0"
       sodipodi:nodetypes="ccccccccccccccscccccccccscccccsccsccccsscccccccccccccccccccccccccccccccccccccccccccccsccccccccccscccccsccccccccccccccccccccccccccscccccccccccccc" />
    <flowRoot
       xml:space="preserve"
       id="flowRoot4768"
       style="fill:#ffcc00;fill-opacity:1;stroke:none;font-family:sans-serif;font-style:normal;font-weight:normal;font-size:40px;line-height:1.25;letter-spacing:0px;word-spacing:0px;"><flowRegion
         id="flowRegion4770"
         style="fill:#ffcc00;fill-opacity:1;"><rect
           id="rect4772"
           width="329.30972"
           height="103.03556"
           x="260.61935"
           y="469.86786"
           style="fill:#ffcc00;fill-opacity:1;" /></flowRegion><flowPara
         id="flowPara4774"></flowPara></flowRoot>    <text
       xml:space="preserve"
       style="font-style:normal;font-weight:normal;font-size:40px;line-height:1.25;font-family:sans-serif;letter-spacing:0px;word-spacing:0px;fill:#ffde48;fill-opacity:1;stroke:none;"
       x="632.35547"
       y="554.72064"
       id="text4778"><tspan
         sodipodi:role="line"
         id="tspan4776"
         x="632.35547"
         y="554.72064"
         style="font-style:normal;font-variant:normal;font-weight:normal;font-stretch:normal;font-size:106.66666412px;font-family:'Noto Sans Mono CJK TC';-inkscape-font-specification:'Noto Sans Mono CJK TC';fill:#ffde48;fill-opacity:1;">NATAL</tspan></text>
  </g>
</svg>
