<?xml version="1.0" encoding="UTF-8" standalone="no"?>
<!-- Created with Inkscape (http://www.inkscape.org/) -->

<svg
   xmlns:dc="http://purl.org/dc/elements/1.1/"
   xmlns:cc="http://creativecommons.org/ns#"
   xmlns:rdf="http://www.w3.org/1999/02/22-rdf-syntax-ns#"
   xmlns:svg="http://www.w3.org/2000/svg"
   xmlns="http://www.w3.org/2000/svg"
   xmlns:sodipodi="http://sodipodi.sourceforge.net/DTD/sodipodi-0.dtd"
   xmlns:inkscape="http://www.inkscape.org/namespaces/inkscape"
   width="1920px"
   height="1080px"
   viewBox="0 0 1920 1080"
   version="1.1"
   id="SVGRoot"
   inkscape:version="0.92.3 (2405546, 2018-03-11)"
   sodipodi:docname="logo.svg">
  <sodipodi:namedview
     id="base"
     pagecolor="#ffffff"
     bordercolor="#666666"
     borderopacity="1.0"
     inkscape:pageopacity="0.0"
     inkscape:pageshadow="2"
     inkscape:zoom="0.7"
     inkscape:cx="774.86755"
     inkscape:cy="702.06187"
     inkscape:document-units="px"
     inkscape:current-layer="layer1"
     showgrid="false"
     inkscape:window-width="1373"
     inkscape:window-height="755"
     inkscape:window-x="67"
     inkscape:window-y="27"
     inkscape:window-maximized="1"
     inkscape:object-nodes="false"
     inkscape:measure-start="0,0"
     inkscape:measure-end="0,0"
     showguides="false" />
  <defs
     id="defs3729" />
  <metadata
     id="metadata3732">
    <rdf:RDF>
      <cc:Work
         rdf:about="">
        <dc:format>image/svg+xml</dc:format>
        <dc:type
           rdf:resource="http://purl.org/dc/dcmitype/StillImage" />
        <dc:title></dc:title>
      </cc:Work>
    </rdf:RDF>
  </metadata>
  <g
     id="layer1"
     inkscape:groupmode="layer"
     inkscape:label="Layer 1">
    <path
       style="fill:none;stroke:#000000;stroke-width:1px;stroke-linecap:butt;stroke-linejoin:miter;stroke-opacity:1"
       d="M 637.40625,555.73083 C 639.42656,264.80689 783.87837,352.69017 783.87837,352.69017"
       id="path3993"
       inkscape:connector-curvature="0"
       sodipodi:nodetypes="cc" />
    <path
       style="fill:none;stroke:#000000;stroke-width:1.01439571px;stroke-linecap:butt;stroke-linejoin:miter;stroke-opacity:1"
       d="M 501.04264,558.76149 C 503.09013,269.53043 652.55729,292.09456 652.55729,292.09456"
       id="path3995"
       inkscape:connector-curvature="0" />
    <path
       style="fill:none;stroke:#000000;stroke-width:1px;stroke-linecap:butt;stroke-linejoin:miter;stroke-opacity:1"
       d="m 501.03566,382.99474 c 4.04061,-94.95434 137.38075,-80.8122 137.38075,-80.8122"
       id="path4003"
       inkscape:connector-curvature="0" />
    <path
       style="fill:none;stroke:#000000;stroke-width:1px;stroke-linecap:butt;stroke-linejoin:miter;stroke-opacity:1"
       d="M 501.03566,379.96429 C 442.44681,297.13178 606.09153,297.13178 606.09153,297.13178"
       id="path4007"
       inkscape:connector-curvature="0" />
    <path
       id="path4023"
       style="fill:#008000;stroke-width:1.01015258"
       d="m 566.12891,320.47656 c -3.17837,0 -11.30241,0.50314 -18.05274,1.11914 -14.38518,1.31271 -16.48172,2.38944 -27.19336,13.95899 -10.33889,11.16696 -16.59304,25.26152 -18.51953,41.74219 -0.37344,3.19461 -1.0807,5.80859 -1.57226,5.80859 -0.49157,0 -0.89454,-0.72482 -0.89454,-1.61133 0,-0.88651 -0.91361,-2.89723 -2.03125,-4.4668 -1.11763,-1.56958 -3.73162,-6.41188 -5.80859,-10.76172 -3.58265,-7.50315 -3.77539,-8.4263 -3.77539,-18.00976 0,-8.66262 0.33654,-10.73607 2.36914,-14.54688 l 2.37109,-4.44336 -4.39062,0.60938 c -21.566,2.98809 -53.59965,19.58047 -81.71094,42.32422 -23.97179,19.39464 -54.24487,55.58931 -66.57812,79.59961 -12.10725,23.57033 -17.77108,49.6184 -18.94532,87.12305 l -0.57812,18.44335 c 1.15626,0.0602 2.32036,0.21136 3.49414,0.46485 l 6.48828,-0.0566 c 5.49887,-0.0487 10.92095,0.11606 13.5918,-0.25196 l 5.36133,0.0879 4.57617,-9.84961 c 11.34819,-25.51716 24.43059,-42.50928 35.00781,-45.47071 8.71447,-2.43991 16.55451,2.89489 23.47266,15.97071 3.83614,7.25058 8.55709,20.65757 10.74414,30.51171 l 1.68164,7.57618 37.21679,-0.27735 37.21876,-0.27734 0.66406,-15.38086 c 1.66874,-38.60868 4.73018,-66.96414 10.16601,-94.17188 10.6788,-53.45017 29.69565,-94.31793 56.05664,-120.46093 l 5.34766,-5.30274 z" />
    <path
       style="fill:#008000;stroke-width:1.01015258"
       d="m 638.71245,535.97196 c 2.9168,-75.03141 14.56187,-125.64098 36.45236,-158.42227 2.96803,-4.44467 7.67738,-10.31095 10.46522,-13.03617 l 5.0688,-4.95496 8.5835,5.4061 c 18.62034,11.72754 23.54317,16.84251 43.5745,45.27519 29.17739,41.41468 35.49296,54.00237 42.45353,84.61479 4.19291,18.44033 6.16142,31.17506 7.10553,45.96724 l 0.68541,10.73914 -34.72754,0.60733 c -19.10014,0.33402 -53.99517,0.87897 -77.54451,1.21099 l -42.81697,0.60367 z"
       id="path4025"
       inkscape:connector-curvature="0" />
    <path
       style="fill:#ffe6d5;stroke-width:1.01015258"
       d="m 501.92294,550.84009 c 0.011,-9.69113 2.10271,-43.64518 3.58131,-58.13301 5.96547,-58.45177 20.58927,-106.98314 42.30965,-140.4112 6.43176,-9.8986 19.3761,-25.4631 24.29999,-29.21873 3.52205,-2.6864 3.91764,-2.75354 12.43024,-2.1098 16.04052,1.21302 34.78926,3.69284 42.14681,5.57459 7.68533,1.96557 35.61522,15.90828 52.54726,26.23179 l 9.45727,5.76612 -4.54158,4.45416 c -8.87191,8.70112 -18.15954,23.91241 -25.01414,40.9682 -13.01822,32.39224 -20.11866,74.46612 -22.41519,132.82193 l -0.66127,16.80295 -43.08165,0.62619 c -23.69491,0.34441 -53.87766,0.7602 -67.07278,0.92397 l -23.99112,0.29775 0.005,-4.59491 z"
       id="path4027"
       inkscape:connector-curvature="0" />
    <path
       style="fill:#ffe6d5;stroke-width:1.01015258"
       d="m 497.00662,371.73284 c -6.96798,-12.17876 -9.00823,-24.47752 -5.66629,-34.15676 2.97535,-8.6175 3.59963,-8.98746 18.73404,-11.10212 7.45891,-1.0422 15.08099,-2.11447 16.93796,-2.38281 3.33953,-0.48257 3.30428,-0.42189 -3.23674,5.57176 -11.6466,10.672 -18.46277,22.92707 -21.80576,39.20552 l -1.74381,8.49133 z"
       id="path4029"
       inkscape:connector-curvature="0" />
    <path
       id="path4031"
       style="fill:#ffe6d5;stroke-width:1.01015258"
       d="m 394.07617,503.61133 c -9.85835,-0.34266 -21.74457,12.46354 -33.83594,36.57226 -2.5078,5.00026 -5.27074,10.79742 -6.14062,12.88086 l -1.58203,3.78711 h 35.34961 35.34961 l -0.6875,-3.78711 c -1.40524,-7.7333 -6.68349,-23.98492 -10.18946,-31.37304 -4.16329,-8.7733 -11.48409,-16.77373 -16.32031,-17.83594 -0.63867,-0.14028 -1.28613,-0.2213 -1.94336,-0.24414 z" />
    <path
       id="path3917-7"
       d="m 865.44492,585.31686 c 1.2409,-8.07222 1.7654,-16.24678 2.32828,-24.40854 19.86711,-5.1043 40.05405,-11.37274 59.56297,-18.80532 0.0512,-11.07851 -0.65243,-22.11864 -1.57351,-33.13318 -20.55792,-6.74177 -40.91116,-12.16589 -61.69936,-16.14443 -1.11296,-8.1106 -3.04467,-16.05488 -4.73331,-24.05034 -2.17476,-7.89312 -4.08088,-15.8502 -6.75456,-23.57701 16.95037,-11.99959 33.15877,-24.95863 48.86824,-38.96667 -4.00412,-10.29815 -8.40482,-20.48117 -13.41957,-30.33157 -21.40225,0.95945 -42.66377,3.40286 -63.29845,7.036 -4.22161,-6.99762 -8.41762,-14.02084 -13.2149,-20.64747 -4.567,-6.78015 -9.65851,-13.18931 -14.71164,-19.62406 11.23202,-17.15505 21.84999,-35.32074 31.3422,-54.03651 -7.48375,-8.16176 -15.37687,-15.87578 -23.44908,-23.42349 -19.80316,8.92933 -38.45496,18.56226 -56.50551,29.62797 -6.31961,-5.18106 -13.04859,-9.83761 -19.7264,-14.55813 -6.8569,-4.45187 -13.70102,-8.90374 -20.86495,-12.86949 4.43908,-20.35324 7.58609,-40.6809 9.82482,-61.75053 -9.93995,-4.83565 -20.00783,-9.37707 -30.33157,-13.33003 -15.1338,15.12101 -29.24419,31.32941 -42.02413,47.84482 -7.82916,-2.37945 -15.69669,-4.60538 -23.66656,-6.37078 -7.96987,-1.84215 -16.00371,-3.39007 -24.10151,-4.55421 -3.22377,-20.37882 -7.61168,-40.89837 -13.18931,-61.07251 -11.01454,-1.10018 -22.10585,-1.45837 -33.14597,-1.49675 -8.66069,19.67523 -15.91417,39.67027 -21.79882,59.88279 -8.17456,0.44774 -16.31074,1.50954 -24.39575,2.60972 -8.08501,1.21531 -16.13164,2.64809 -24.08872,4.51583 -10.43887,-18.06334 -21.79882,-35.12885 -34.33569,-52.24552 -10.5668,3.14701 -21.09522,6.48591 -31.38058,10.56679 -1.03621,21.3127 -0.49892,42.90683 1.13855,63.64385 -7.31744,3.62035 -14.71164,7.12556 -21.76044,11.2832 -7.2151,3.88899 -14.03363,8.40482 -20.91612,12.80552 -16.00371,-12.71597 -33.20994,-25.09934 -50.8895,-36.19064 -8.83978,6.66501 -17.27019,13.82894 -25.50871,21.19756 7.01042,20.50675 14.94192,40.00288 24.28061,58.9873 -5.75673,5.8079 -11.01454,12.08913 -16.29794,18.33199 -5.1171,6.37078 -10.13185,12.83111 -14.76282,19.57288 -19.85432,-6.30682 -39.77261,-11.25761 -60.59918,-15.45362 -5.67997,9.45383 -11.12968,19.06117 -16.04209,28.96275 13.75219,16.51542 28.42546,31.96904 43.81512,46.25852 -3.1726,7.53492 -6.01259,15.21056 -8.57113,22.96296 -2.45621,7.80357 -4.95079,15.60714 -6.72898,23.5898 -20.69865,1.29207 -41.39729,3.77386 -62.05756,7.45817 -2.03404,10.86103 -3.60755,21.84999 -4.55421,32.86453 18.72856,10.42608 38.10956,19.53451 57.5673,27.27411 -0.0767,8.17456 -0.20468,16.36191 0.38379,24.52367 0.3454,8.17456 1.26648,16.28515 2.22593,24.42133 -18.70298,8.69906 -37.04776,18.51109 -55.13668,29.43608 2.18755,10.80986 4.59259,21.55576 7.65005,32.16094 21.21036,2.92953 42.63819,4.43907 63.51593,4.68214 2.85278,7.65005 5.74394,15.32569 9.18518,22.73269 3.21098,7.53492 7.0488,14.76281 10.84824,21.99071 -14.21273,14.7884 -28.09285,30.74094 -40.79603,47.32032 5.79511,9.42824 12.17868,18.49829 18.76694,27.37645 21.00567,-5.02754 41.24378,-11.20643 60.95738,-18.70298 5.24502,6.29403 11.01454,12.08914 16.77127,17.90983 5.80791,5.73115 11.84608,11.25761 18.11452,16.51542 -8.04663,19.11235 -14.89075,38.60847 -20.9673,58.92333 8.92933,6.54988 17.99938,12.83112 27.38925,18.65181 17.74352,-12.28102 34.39966,-25.31682 50.09635,-39.41441 7.2023,3.8762 14.5965,7.34303 22.06746,10.66914 7.54771,3.12142 15.08264,6.31961 22.87341,8.85257 -0.63964,20.76261 -0.0512,41.49963 1.66306,62.49251 10.64355,2.9807 21.40224,5.61601 32.30165,7.5605 12.10193,-17.6028 23.00134,-36.20344 32.49354,-54.74011 8.14898,0.78036 16.25957,1.68864 24.44692,1.84216 8.16176,0.49891 16.34911,0.21747 24.52367,0.0895 6.93366,19.25307 15.05705,38.78757 24.24223,57.55452 11.02734,-1.03622 21.93954,-2.69927 32.82616,-4.60539 4.77169,-21.17197 8.32807,-41.84503 10.3877,-62.91467 7.94429,-1.98287 15.76065,-4.36232 23.51304,-6.99762 7.68844,-2.69927 15.41525,-5.47529 22.8862,-8.81419 13.45796,15.67109 27.95213,30.8049 43.3162,45.03042 9.93996,-4.83565 19.56009,-10.36212 28.98834,-16.14443 -2.98071,-21.27432 -7.30465,-42.11368 -12.92066,-62.40296 6.65222,-4.73331 13.09976,-9.78644 19.3554,-15.05705 6.28124,-5.21943 12.26824,-10.80986 18.15289,-16.48983 18.20406,9.6841 37.12452,18.43433 56.72299,26.25069 7.3942,-8.22573 14.41741,-16.74569 21.1208,-25.5215 -10.69472,-18.86929 -21.99071,-36.54885 -34.6811,-53.51201 4.55421,-6.79294 8.6223,-13.9057 12.6776,-21.00567 3.78665,-7.2279 7.63726,-14.45579 10.89941,-21.95233 20.64747,2.54575 41.25656,3.85061 62.39016,4.09367 3.91458,-10.31094 7.53492,-20.7754 10.50284,-31.41895 -16.3747,-13.68823 -33.96471,-26.26349 -51.49076,-37.43154 1.54792,-8.03384 3.13422,-16.05489 4.10647,-24.19106 z m -68.24924,-9.08285 c -4.01692,30.30599 -13.75219,59.93396 -28.515,86.86267 -14.75002,26.91591 -34.57876,51.03022 -57.98947,70.73103 -23.44908,19.7136 -50.46733,34.96254 -79.49405,44.8897 -29.09067,10.08068 -60.04909,14.39183 -90.55976,13.24048 -30.54905,-1.18972 -60.88062,-8.12339 -89.02464,-20.35324 -28.1696,-12.16589 -54.03651,-29.70473 -75.82253,-51.24769 -21.82441,-21.53017 -39.54235,-47.06447 -52.04085,-74.97822 -12.57525,-27.86257 -1.7995,-42.31314 -3.34742,-72.83661 -1.62468,-30.54905 0.4231,-68.41223 10.01765,-97.52849 9.54338,-29.12906 24.54926,-46.44236 44.0326,-70.1473 19.44495,-23.73052 46.29547,-43.76394 72.92995,-58.78261 26.59609,-14.9547 51.07097,-16.17428 81.54326,-20.49822 30.35716,-4.42629 47.22461,-4.24671 80.11331,-0.43306 33.86047,4.79822 26.15071,8.10301 58.64094,22.29157 25.44475,17.19344 46.62998,23.9551 64.04089,49.08003 17.46209,25.12493 43.23329,57.50144 50.57632,87.42365 7.15114,29.96058 12.88039,53.87352 8.83788,84.20509"
       inkscape:connector-curvature="0"
       style="fill:#3771c8;stroke-width:12.79273415"
       sodipodi:nodetypes="ccccccccccccccccccccccccccccccccccccccccccccccccccccccccccccccccccccccccccccccccccccccccccccccccccccccccc" />
    <path
       id="path3915-6-5"
       d="m 322.53397,349.7297 -11.5861,-15.98378 33.864,-6.04263 -5.3458,19.0051 -8.1714,1.43771 z m -2.8658,-65.02157 c 26.9806,-4.81414 44.9492,-30.58743 40.135,-57.56618 -4.8141,-26.98067 -30.5893,-44.94922 -57.568,-40.13508 -26.9807,4.81413 -44.9492,30.58743 -40.1351,57.56809 4.8141,26.97875 30.5894,44.94731 57.5681,40.13317 z m -54.9959,-40.59193 c -4.5608,-25.56023 12.4614,-49.97835 38.0217,-54.53911 25.5602,-4.56076 49.9763,12.4634 54.5371,38.02362 4.5608,25.55831 -12.4614,49.97643 -38.0217,54.53719 -25.5602,4.56076 -49.9764,-12.46147 -54.5371,-38.0217 z m 52.418,26.14184 c 18.9974,-3.38986 31.6508,-21.53885 28.2609,-40.53818 -3.3898,-18.99934 -21.5388,-31.65084 -40.5381,-28.26099 -18.9974,3.38986 -31.6508,21.53885 -28.261,40.53627 3.3899,18.99933 21.5389,31.65276 40.5382,28.2629 z m -64.3574,64.14627 c -4.6855,-3.3054 -9.3999,-6.56857 -14.1103,-9.8375 1.5375,-6.42269 1.3091,-16.52509 4.3304,-22.48709 l 0.042,-0.0691 c -9.2866,-9.27317 -15.7266,-20.8056 -20.629,-32.87549 l -3.2613,0.58161 -19.0032,-5.34392 c -0.977,-5.64913 -2.0001,-11.29058 -3.0213,-16.93202 5.8853,-3.60101 12.544,-10.84141 19.2623,-12.91448 0.021,-12.86074 2.983,-25.47385 7.9833,-37.27694 -2.8486,-2.361 -4.4206,-5.82764 -6.1405,-9.02362 -3.0924,-5.7451 -2.6298,-4.87365 -5.7797,-10.58803 3.3035,-4.68553 6.5686,-9.39794 9.8356,-14.10842 1.1786,0.18619 2.3533,0.38198 3.5319,0.55666 4.5608,0.67375 14.3829,1.45499 18.7325,3.66051 9.2463,-9.55342 20.821,-16.24484 33.0272,-21.26244 -1.5971,-8.95069 -0.668,-1.66614 4.9043,-21.47551 11.4902,-2.02508 5.8468,-1.01734 16.932,-3.02131 12.0776,16.65945 10.4307,9.50351 12.0277,18.45419 13.2811,-0.0499 26.2397,3.26893 38.3595,8.53416 2.7602,-3.09618 6.7432,-4.76615 10.3308,-6.68951 3.9753,-2.13257 5.1347,-2.79097 9.0831,-4.97345 4.6856,3.30348 9.3999,6.56857 14.1104,9.83558 -0.6987,4.40336 -1.2976,8.82976 -1.4992,13.28494 -0.063,1.40893 0.056,2.90807 -0.4549,4.25364 -0.6142,1.62199 -1.9425,3.09042 -2.9234,4.49358 9.3135,9.23862 15.9492,20.66355 20.8709,32.73537 3.7622,-0.3935 7.3978,0.96167 10.9527,2.027 6.2269,1.86769 5.3286,1.59128 11.5747,3.39946 0.9751,5.65105 2.002,11.29057 3.0213,16.93202 -3.6145,2.63165 -7.1867,5.33816 -10.4883,8.35564 -1.0442,0.954 -2.0481,2.10186 -3.3764,2.68731 -1.6296,0.71598 -3.649,0.81964 -5.3804,1.12676 0.046,13.11219 -2.9061,25.98636 -8.0005,38.0217 2.8486,2.361 4.4206,5.82956 6.1386,9.02363 3.0923,5.7451 2.6317,4.87364 5.7816,10.58803 -3.3054,4.68553 -6.5686,9.39986 -9.8356,14.10842 -1.1786,-0.18427 -2.3533,-0.38198 -3.5319,-0.55474 -4.5608,-0.67375 -14.3829,-1.45691 -18.7325,-3.66051 -9.2463,9.5515 -20.821,16.24484 -33.0271,21.26244 l 0.4415,2.47042 -33.8641,6.04262 -0.4415,-2.47041 c -2.9848,0.0326 -5.9485,-0.24378 -8.918,-0.47796 -10.4575,-0.89065 -20.462,-4.21333 -30.05,-8.33068 l -1.5893,2.27846 z"
       inkscape:connector-curvature="0"
       style="fill:#ffcc00;stroke-width:1.91951251" />
  </g>
</svg>
