<?xml version="1.0" encoding="UTF-8" standalone="no"?>
<!-- Created with Inkscape (http://www.inkscape.org/) -->

<svg
   xmlns:dc="http://purl.org/dc/elements/1.1/"
   xmlns:cc="http://creativecommons.org/ns#"
   xmlns:rdf="http://www.w3.org/1999/02/22-rdf-syntax-ns#"
   xmlns:svg="http://www.w3.org/2000/svg"
   xmlns="http://www.w3.org/2000/svg"
   xmlns:sodipodi="http://sodipodi.sourceforge.net/DTD/sodipodi-0.dtd"
   xmlns:inkscape="http://www.inkscape.org/namespaces/inkscape"
   width="1920px"
   height="1080px"
   viewBox="0 0 1920 1080"
   version="1.1"
   id="SVGRoot"
   inkscape:version="0.92.3 (2405546, 2018-03-11)"
   sodipodi:docname="logo.svg">
  <sodipodi:namedview
     id="base"
     pagecolor="#ffffff"
     bordercolor="#666666"
     borderopacity="1.0"
     inkscape:pageopacity="0.0"
     inkscape:pageshadow="2"
     inkscape:zoom="0.35"
     inkscape:cx="743.1844"
     inkscape:cy="616.23744"
     inkscape:document-units="px"
     inkscape:current-layer="layer1"
     showgrid="false"
     inkscape:window-width="1373"
     inkscape:window-height="755"
     inkscape:window-x="67"
     inkscape:window-y="27"
     inkscape:window-maximized="1"
     inkscape:object-nodes="false"
     inkscape:measure-start="0,0"
     inkscape:measure-end="0,0"
     showguides="false"
     inkscape:snap-text-baseline="false" />
  <defs
     id="defs3729" />
  <metadata
     id="metadata3732">
    <rdf:RDF>
      <cc:Work
         rdf:about="">
        <dc:format>image/svg+xml</dc:format>
        <dc:type
           rdf:resource="http://purl.org/dc/dcmitype/StillImage" />
        <dc:title />
      </cc:Work>
    </rdf:RDF>
  </metadata>
  <g
     id="layer1"
     inkscape:groupmode="layer"
     inkscape:label="Layer 1">
    <path
       style="fill:none;stroke:#000000;stroke-width:1.94400787px;stroke-linecap:butt;stroke-linejoin:miter;stroke-opacity:1"
       d="m 1130.629,867.89242 c 3.9275,-565.55843 284.743,-394.71265 284.743,-394.71265"
       id="path3993"
       inkscape:connector-curvature="0"
       sodipodi:nodetypes="cc" />
    <path
       style="fill:none;stroke:#000000;stroke-width:1.97199321px;stroke-linecap:butt;stroke-linejoin:miter;stroke-opacity:1"
       d="m 865.53712,873.78404 c 3.98033,-562.26745 294.54568,-518.4026 294.54568,-518.4026"
       id="path3995"
       inkscape:connector-curvature="0" />
    <path
       style="fill:none;stroke:#000000;stroke-width:1.94400787px;stroke-linecap:butt;stroke-linejoin:miter;stroke-opacity:1"
       d="M 865.52355,532.0921 C 873.37852,347.50011 1132.5928,374.99254 1132.5928,374.99254"
       id="path4003"
       inkscape:connector-curvature="0" />
    <path
       style="fill:none;stroke:#000000;stroke-width:1.94400787px;stroke-linecap:butt;stroke-linejoin:miter;stroke-opacity:1"
       d="M 865.52355,526.20088 C 751.62636,365.17383 1069.753,365.17383 1069.753,365.17383"
       id="path4007"
       inkscape:connector-curvature="0" />
    <path
       id="path4023"
       style="fill:#008050;fill-opacity:1;stroke-width:1.96374452"
       d="m 992.06533,410.55627 c -6.17877,0 -21.97196,0.9781 -35.09466,2.17561 -27.9649,2.55192 -32.04059,4.64509 -52.8641,27.13638 -20.09889,21.70867 -32.25701,49.1086 -36.00212,81.14715 -0.72597,6.21035 -2.10089,11.29195 -3.05649,11.29195 -0.95561,0 -1.73899,-1.40906 -1.73899,-3.13244 0,-1.72338 -1.77607,-5.63224 -3.94876,-8.6835 -2.17268,-3.05127 -7.2543,-12.46474 -11.29195,-20.92086 -6.96469,-14.58619 -7.33939,-16.3808 -7.33939,-35.01111 0,-16.8402 0.65424,-20.87101 4.60563,-28.27925 l 4.60942,-8.63793 -8.5354,1.18464 c -41.92447,5.80886 -104.19815,38.06458 -158.84672,82.27861 -46.60134,37.70334 -105.45245,108.06606 -129.42838,154.74227 -23.53659,45.82091 -34.54712,96.45857 -36.82985,169.36789 l -1.12387,35.85403 c 2.24778,0.11702 4.5108,0.41087 6.79263,0.90367 l 12.61327,-0.11008 c 10.68985,-0.0946 21.23041,0.22562 26.42256,-0.48981 l 10.42247,0.17088 8.89612,-19.14772 c 22.06097,-49.60556 47.49325,-82.63837 68.05546,-88.39542 16.94099,-4.74321 32.18209,5.62769 45.63103,31.04718 7.45748,14.09519 16.63505,40.15848 20.88669,59.31501 l 3.26912,14.72816 72.34973,-0.53918 72.35356,-0.53915 1.29094,-29.90051 c 3.24405,-75.05558 9.19551,-130.17882 19.76281,-183.07088 20.75967,-103.90755 57.72857,-183.35479 108.97455,-234.177 l 10.39586,-10.30856 z"
       inkscape:connector-curvature="0" />
    <path
       style="fill:#008050;fill-opacity:1;stroke-width:1.96374452"
       d="m 1133.1683,829.48102 c 5.6703,-145.86165 28.3083,-244.24706 70.8637,-307.97415 5.7699,-8.64046 14.9249,-20.04456 20.3444,-25.3424 l 9.8539,-9.63249 16.6863,10.5095 c 36.1981,22.79843 45.7681,32.74198 84.7092,88.01533 56.721,80.51046 68.9986,104.98103 82.53,164.49182 8.151,35.84814 11.9778,60.60456 13.8133,89.36067 l 1.3323,20.87698 -67.5105,1.18064 c -37.1308,0.64934 -104.9671,1.70874 -150.7472,2.35418 l -83.2365,1.17354 z"
       id="path4025"
       inkscape:connector-curvature="0" />
    <path
       style="fill:#ffe6d5;stroke-width:1.96374452"
       d="m 867.24843,858.38478 c 0.0214,-18.83964 4.08768,-84.84658 6.96209,-113.01103 11.59692,-113.6307 40.0257,-207.97607 82.25029,-272.96047 12.5034,-19.24296 37.66729,-49.50047 47.23939,-56.80145 6.8469,-5.22238 7.6159,-5.3529 24.1645,-4.10146 31.1829,2.35812 67.6306,7.17891 81.9337,10.83704 14.9403,3.82109 69.2362,30.92582 102.1523,50.99481 l 18.385,11.20938 -8.8289,8.65893 c -17.247,16.91504 -35.3022,46.4859 -48.6277,79.64249 -25.3074,62.97078 -39.1108,144.76273 -43.5753,258.20688 l -1.2855,32.66507 -83.751,1.21731 c -46.06314,0.66955 -104.73864,1.47784 -130.39006,1.79621 l -46.63893,0.57884 0.01,-8.93255 z"
       id="path4027"
       inkscape:connector-curvature="0" />
    <path
       style="fill:#ffe6d5;stroke-width:1.96374452"
       d="m 857.69107,510.19887 c -13.54582,-23.6756 -17.51208,-47.58449 -11.01532,-66.401 5.7841,-16.75249 6.99771,-17.47169 36.41912,-21.58261 14.50018,-2.02605 29.31756,-4.11055 32.92752,-4.63221 6.49208,-0.93812 6.42356,-0.82015 -6.29225,10.83155 -22.64108,20.74646 -35.89176,44.5704 -42.39056,76.21584 l -3.38998,16.50721 z"
       id="path4029"
       inkscape:connector-curvature="0" />
    <path
       id="path4031"
       style="fill:#ffe6d5;stroke-width:1.96374452"
       d="m 657.59345,766.5717 c -19.1647,-0.66614 -42.27161,24.22922 -65.77733,71.09676 -4.87518,9.72054 -10.24636,20.99026 -11.93741,25.0405 l -3.07548,7.36216 h 68.71992 68.71991 l -1.33649,-7.36216 c -2.7318,-15.0336 -12.99276,-46.62688 -19.80839,-60.98944 -8.09347,-17.05537 -22.32517,-32.60826 -31.72682,-34.67321 -1.24158,-0.2727 -2.50025,-0.43021 -3.77791,-0.47461 z"
       inkscape:connector-curvature="0" />
    <path
       id="path3917-7"
       style="fill:#1b81a8;fill-opacity:1;stroke-width:24.86917496"
       d="m 962.57868,111.56255 c -16.83645,38.2488 -30.93729,77.11935 -42.37709,116.41265 -15.89142,0.87041 -31.70963,2.93769 -47.42697,5.07644 -15.71733,2.36258 -31.35843,5.14751 -46.82705,8.7784 -20.29324,-35.11526 -42.37754,-68.29186 -66.74931,-101.5668 -20.54195,6.11781 -41.00983,12.60792 -61.00464,20.54119 -2.0144,41.43204 -0.96968,83.41253 2.21358,123.72546 -14.22516,7.03799 -28.59824,13.85215 -42.30117,21.93463 -14.0262,7.56023 -27.28127,16.33742 -40.66089,24.89242 -31.11134,-24.71995 -64.56258,-48.79101 -98.93179,-70.35258 -17.18459,12.95675 -33.57163,26.88299 -49.58737,41.20765 13.62831,39.86527 29.04845,77.76402 47.20293,114.66988 -11.19112,11.29061 -21.41408,23.50144 -31.68505,35.63761 -9.94768,12.38485 -19.69425,24.94639 -28.6969,38.05244 -38.59695,-12.26051 -77.3191,-21.88772 -117.80611,-30.0448 -11.04191,18.37832 -21.63789,37.05533 -31.18765,56.30409 26.73437,32.10611 55.26181,62.15049 85.17943,89.92935 -6.16756,14.64795 -11.69072,29.56931 -16.66454,44.64004 -4.7749,15.17021 -9.62348,30.34049 -13.0803,45.85884 -40.23834,2.5118 -80.47865,7.3342 -120.64238,14.49652 -3.95419,21.11393 -7.01025,42.47794 -8.85056,63.89029 36.40847,20.26838 74.08354,37.97392 111.90955,53.01976 -0.14872,15.84709 -0.39269,31.71834 0.74039,47.54087 0.34713,-0.004 0.73653,10e-4 1.06694,-0.008 8.39826,0.01 16.7941,-0.0648 25.19235,-0.0303 6.94676,0.0651 13.90107,0.33424 20.84493,0.0494 l 20.41695,0.19207 c 2.93465,-0.36435 12.11863,-1.0679 15.0536,-1.42925 85.54773,-3.05327 62.73978,-1.75387 89.39101,-1.86804 -0.6383,-53.24929 4.94901,-115.02951 20.70037,-162.82969 18.55241,-56.62712 43.55949,-89.58843 81.43516,-135.67102 37.80115,-46.13232 89.99825,-85.07862 141.77589,-114.27503 51.703,-29.07206 99.2818,-31.44258 158.52017,-39.84835 59.01456,-8.60475 81.98624,-7.2748 145.92214,0.139 65.825,9.32778 60.6553,14.76937 123.8166,42.35204 49.4648,33.42417 90.6492,46.569 124.4962,95.41206 33.9464,48.84306 84.0456,111.7836 98.3205,169.95261 11.1701,46.79846 20.5327,86.01718 19.7134,130.20675 l 35.0082,1.60956 11.1464,0.98189 c 6.48,-0.002 21.3059,-0.49872 27.7859,-0.48706 6.5965,0.006 128.0725,-2.02983 134.6685,-1.96374 l 0.1935,-0.37206 c 38.6218,-9.92281 15.5156,-2.47 53.4411,-16.91899 0.099,-21.53672 -1.2697,-42.99812 -3.0604,-64.41047 -39.9647,-13.10605 -79.5313,-23.65078 -119.9437,-31.3851 -2.1636,-15.76706 -5.9172,-31.21166 -9.1998,-46.7549 -4.2278,-15.34428 -7.9321,-30.81507 -13.1297,-45.83605 32.9517,-23.3273 64.4589,-48.52003 94.9982,-75.75176 -7.784,-20.01969 -16.3397,-39.81266 -26.0884,-58.96191 -41.6061,1.86517 -82.9357,6.61354 -123.0496,13.6764 -8.207,-13.60343 -16.3639,-27.25473 -25.6898,-40.13694 -8.8783,-13.18066 -18.7787,-25.64196 -28.602,-38.15115 21.8352,-33.34956 42.4759,-68.66497 60.9287,-105.04857 -14.5485,-15.86653 -29.893,-30.85949 -45.5854,-45.53231 -38.4976,17.35869 -74.7537,36.0832 -109.8441,57.59503 -12.2854,-10.07202 -25.3669,-19.12528 -38.3486,-28.30201 -13.3298,-8.65447 -26.6354,-17.30826 -40.5622,-25.01771 8.6296,-39.56686 14.7463,-79.08296 19.0984,-120.04249 -19.3234,-9.40054 -38.8963,-18.22919 -58.9658,-25.91378 -29.4201,29.39536 -56.8495,60.90254 -81.6939,93.00863 -15.2199,-4.62568 -30.5133,-8.94971 -46.0068,-12.38165 -15.4935,-3.58117 -31.1115,-6.59126 -46.8537,-8.85436 -6.267,-39.61659 -14.7974,-79.50635 -25.6404,-118.72496 -21.4123,-2.13875 -42.97491,-2.83761 -64.43699,-2.91221 z"
       inkscape:connector-curvature="0"
       sodipodi:nodetypes="cccccccccccccccccccccccccccccccccccccccccccccccccccccccccccccccccc" />
    <path
       id="path3915-6-5"
       d="m 518.51485,467.42459 -22.52346,-31.07259 65.83188,-11.74692 -10.39228,36.94607 -15.88527,2.79492 z m -5.57114,-126.40243 c 52.45051,-9.35874 87.3816,-59.46221 78.02276,-111.90911 -9.35864,-52.45064 -59.46584,-87.38164 -111.91265,-78.02291 -52.45069,9.35871 -87.38159,59.46221 -78.02294,111.91282 9.35865,52.4469 59.46603,87.37792 111.91283,78.0192 z M 406.03126,262.11113 c -8.86623,-49.6893 24.22506,-97.15832 73.91448,-106.02446 49.68922,-8.86616 97.15432,24.22894 106.02055,73.91821 8.86623,49.68556 -24.22506,97.15458 -73.91448,106.02073 -49.68924,8.86615 -97.15451,-24.2252 -106.02055,-73.91448 z m 101.901,50.81994 c 36.9311,-6.58992 61.52941,-41.8717 54.93941,-78.80654 -6.58979,-36.93488 -41.87159,-61.52949 -78.80638,-54.93959 -36.9311,6.58991 -61.52941,41.87169 -54.93961,78.80282 6.58999,36.93486 41.87179,61.53322 78.80658,54.94331 z M 382.82097,437.63192 c -9.10865,-6.42572 -18.27348,-12.76935 -27.43053,-19.12418 2.9889,-12.48575 2.54489,-32.1249 8.41833,-43.71507 l 0.0816,-0.13434 c -18.0532,-18.02712 -30.57262,-40.44625 -40.10291,-63.91021 l -6.34,1.13066 -36.94237,-10.38862 c -1.89929,-10.98196 -3.8882,-21.94898 -5.87343,-32.91599 11.44107,-7.00039 24.38564,-21.07579 37.44606,-25.10585 0.0408,-25.00138 5.79898,-49.52137 15.5196,-72.46666 -5.5377,-4.5898 -8.59368,-11.32898 -11.93718,-17.542 -6.01164,-11.16851 -5.11235,-9.4744 -11.23579,-20.58321 6.42204,-9.10871 12.76941,-18.26967 19.12049,-27.42688 2.29121,0.36196 4.57484,0.74258 6.86604,1.08215 8.86623,1.30978 27.96048,2.82852 36.41613,7.11606 17.97488,-18.571916 40.47619,-31.580087 64.20514,-41.334339 -3.10478,-17.400216 -1.29859,-3.238994 9.53399,-41.748571 22.33705,-3.936764 11.36623,-1.977714 32.91595,-5.873445 23.47894,32.3861 20.27736,18.474899 23.38194,35.875093 25.81856,-0.09707 51.01019,6.354825 74.57117,16.590468 5.36585,-6.019 13.10883,-9.265428 20.08316,-13.004453 7.72802,-4.145731 9.98189,-5.425675 17.65762,-9.668427 9.10884,6.421987 18.27347,12.769345 27.43073,19.120441 -1.35828,8.560168 -2.52255,17.16513 -2.91447,25.826026 -0.12247,2.738977 0.10887,5.653317 -0.88432,8.269117 -1.19401,3.15315 -3.77624,6.0078 -5.68312,8.73556 18.10552,17.95994 31.00537,40.17009 40.57321,63.63781 7.31374,-0.76497 14.38137,1.86949 21.29213,3.9405 12.10514,3.63081 10.35884,3.09346 22.5013,6.60857 1.89561,10.98569 3.89191,21.94896 5.87344,32.91599 -7.02662,5.11595 -13.97101,10.37743 -20.38935,16.24343 -2.02993,1.85458 -3.98152,4.08603 -6.56374,5.22415 -3.16795,1.39187 -7.09369,1.59339 -10.45954,2.19043 0.0895,25.4902 -5.64949,50.51769 -15.55303,73.91449 5.53769,4.58979 8.59367,11.33271 11.93348,17.54201 6.01146,11.16851 5.11605,9.47439 11.23947,20.58321 -6.42571,9.10871 -12.76941,18.2734 -19.12048,27.42688 -2.29121,-0.35823 -4.57483,-0.74257 -6.86604,-1.07842 -8.86623,-1.30978 -27.96047,-2.83225 -36.41613,-7.11606 -17.97488,18.56819 -40.47618,31.5801 -64.20494,41.33435 l 0.85828,4.80251 -65.83208,11.7469 -0.85828,-4.80249 c -5.80247,0.0633 -11.56393,-0.47391 -17.33666,-0.92916 -20.32946,-1.73143 -39.77829,-8.19074 -58.41744,-16.19491 l -3.08961,4.42935 z"
       inkscape:connector-curvature="0"
       style="fill:#ffde4b;fill-opacity:1;stroke-width:3.73154759" />
    <path
       id="_x23_1B81A8"
       class="st0"
       d="m 1573.4618,1014.2254 c 0.1517,-3.9372 -2.7259,-4.9974 -6.0574,-6.5117 -9.8431,-4.543 -13.7805,-13.47757 -14.6892,-23.92655 -0.9085,-10.44894 -3.3314,-18.62636 -18.7776,-6.05734 17.112,-26.95516 3.0285,-48.15593 -7.5718,-65.57084 -5.9059,-9.69177 -10.449,-15.2948 -7.1175,-26.19805 1.0601,-3.48298 -1.8172,-8.93462 -6.0573,-8.78316 -14.689,0.60571 -29.9838,-5.3002 -44.0673,3.33152 -3.483,13.62905 -7.2689,27.25812 -13.9319,39.97856 -0.4543,2.72581 -0.9086,5.45163 -1.6658,8.17743 -5.1486,15.44627 -9.3888,31.1954 -16.052,45.8844 -5.9058,13.02332 -1.9685,32.40693 -22.2607,36.94993 -0.4545,0.1514 -0.3028,2.12 -0.6058,3.1801 -4.0886,19.6864 0.4545,24.9866 20.595,24.5323 8.9347,-0.1515 17.8693,-0.7573 26.6523,0.1516 14.3864,1.6658 17.415,-4.6944 17.5665,-18.1721 0.303,-16.3548 -12.2661,-8.4803 -19.8378,-13.0234 3.9371,-7.4202 0.7572,-19.53488 15.5977,-18.92914 9.9945,0.30274 20.1407,0.75716 30.1352,0.45443 10.752,-0.45443 11.3576,8.32886 12.4177,14.68911 1.5142,8.4802 -6.3602,5.9059 -10.6006,5.7544 -8.4801,-0.3028 -9.2373,4.6945 -8.4801,10.7518 0.7571,6.5117 -3.3315,16.9607 7.2688,17.7178 18.3236,1.3629 36.9499,0.3028 56.3335,0.3028 -3.6346,-10.146 -16.355,-11.0547 -12.2661,-23.4723 3.7857,1.8173 5.1487,5.7545 7.723,8.4803 3.7859,3.9373 8.9346,9.5404 14.0834,6.2088 4.6944,-3.0286 1.6658,-10.4489 1.6658,-15.9005 z m -69.2054,-47.85318 c -35.5869,-0.75713 -35.8899,10.1461 -16.052,-43.31002 11.6603,12.72046 10.449,29.22677 19.3836,41.03857 -1.8171,1.21149 -2.5744,2.27145 -3.3316,2.27145 z m 202.77,-89.19446 c -6.3601,-1.06007 -13.3262,-0.75722 -9.6918,9.23742 l -3.4829,2.42297 c -4.9973,-12.56902 -15.7491,-12.87187 -26.5009,-11.50902 -7.1174,0.90862 -3.6345,8.02606 -4.5431,12.41763 -2.4229,12.26612 1.5143,19.83782 16.9606,18.92923 -5.1487,8.17743 -9.0859,14.23476 -12.7205,20.29216 -3.9371,6.66305 -7.5715,13.62907 -11.2059,20.44355 v 0.15164 c -7.1174,0.30275 -7.2689,-7.72318 -12.1148,-10.14612 l -1.5143,-3.18005 c -6.3602,-12.41765 -16.9606,-24.07804 -0.9086,-37.55564 4.2402,-3.63441 0.7571,-9.23749 -4.9974,-11.35756 l -0.3029,-0.30278 c -1.9686,-9.08605 -24.835,-16.20341 -30.5895,-7.72318 -5.7544,8.48032 -4.9972,4.08875 -9.9944,0.30278 -6.8147,-4.99735 -15.7494,1.06005 -23.9267,0.15143 1.5143,9.38886 -4.0887,20.59498 7.5716,26.95521 l -1.2114,-8.48031 c -2.5743,-1.96861 -3.4829,-4.84585 -0.6058,-6.20879 1.9688,-0.90859 2.7258,2.1201 2.7258,4.24018 0.9088,0 1.6657,0.15163 2.4229,0.75719 0.4545,3.3315 3.0288,4.08869 5.7547,4.39157 l 0.3025,-0.3028 -0.3025,0.3028 c 1.9685,9.84317 -4.3917,6.05731 -8.7833,5.60305 l 22.4122,30.89255 h -0.1517 c 1.5143,5.60304 3.0288,11.35751 9.0862,14.08332 v 0.15144 c 4.0887,7.26884 9.5404,14.2347 11.8117,21.95788 3.4831,12.11472 12.2664,25.13796 -5.603,35.73839 -5.9059,3.483 -9.6918,14.9919 -7.1172,24.2294 2.5743,9.5403 11.2059,4.9973 17.1119,5.6031 9.9946,0.7571 20.1408,0.1517 30.1354,0.1517 28.7724,0.1512 28.9238,0.1512 27.8639,-27.5611 0,-0.7571 -1.363,-1.3629 -2.5746,-2.5743 -3.9371,3.0287 -1.9685,12.1147 -11.9631,10.146 5.7544,-7.4202 -0.6058,-13.3261 -1.6658,-20.14067 -3.1801,-19.38355 2.2714,-31.34684 16.5063,-48.30737 10.4489,-12.41755 15.5976,-32.70973 28.3181,-39.06996 16.5061,-8.32886 10.4489,-19.23211 10.6003,-28.77242 0.1516,-11.509 -10.9032,-5.4516 -17.1121,-6.36023 z m -89.0431,151.58534 c -0.7571,-0.3028 -2.1201,-0.7573 -2.2714,-1.2115 0,-1.5143 0,-3.0288 0.3028,-4.5431 1.3628,0.7572 2.7258,1.0601 2.7258,1.5143 0,1.363 -0.303,2.8774 -0.7572,4.2403 z M 1395.3754,923.97079 c -6.966,-32.86116 -22.715,-45.88444 -54.5161,-46.49021 -23.1694,-0.45446 -46.4903,0 -69.6597,0.30278 -6.0573,0 -15.1432,-3.33153 -14.0834,7.87455 0.9086,9.38891 -7.2687,23.92657 11.8118,24.98663 0,10.60033 -0.757,21.20068 0.1516,31.64967 1.2116,13.47761 -4.2401,27.56093 3.3318,40.58419 -0.3029,7.11741 10.4489,15.29485 -1.6658,21.6551 -0.3028,0.1514 0.4543,3.0286 1.06,4.543 2.4229,6.8145 -2.1202,9.086 -6.6631,7.1174 -10.6005,-4.543 -8.6318,3.0287 -8.1774,7.8746 0.4544,5.7545 -3.4831,15.5977 7.723,14.9919 34.224,-2.12 69.2053,5.4517 102.5208,-8.026 3.7859,2.2716 6.5116,1.3629 8.026,-3.0287 l 2.4229,-2.2714 c 10.449,-0.1517 10.1463,-6.3602 6.663,-13.1748 -1.9684,-3.7858 -5.603,-6.8146 -4.8457,-11.8118 l 0.9085,-0.1514 0.3028,-0.75727 6.2089,-2.87723 c 3.3314,0.30278 6.966,1.21145 7.7232,-3.483 3.6342,-23.1694 5.4515,-46.49014 0.7569,-69.50813 z m -37.8585,14.0834 c -2.2715,15.29481 -1.9685,31.04384 -3.0288,46.49009 -1.3626,21.35222 -18.1719,32.40692 -38.7668,26.04662 -5.9061,-1.8172 -5.7547,-6.0573 -5.7547,-10.4489 -0.1514,-13.9319 0,-27.86383 0,-41.79571 0,-9.99461 -0.7572,-20.1407 0.3028,-29.98391 0.6058,-7.11739 -4.9972,-17.56629 5.1487,-20.44356 10.4491,-2.87723 22.8667,-3.63442 31.8013,4.54303 7.1174,6.36021 12.1146,14.23476 10.2975,25.59234 z m -643.897,-42.55297 c -2.87734,-5.14875 -5.14868,-8.48028 -0.15163,-13.93189 2.57435,-2.87725 -0.90858,-6.51169 -4.84587,-5.60305 -14.68906,3.48296 -29.22672,-1.81723 -43.76438,-0.15165 -2.42295,0.30275 -6.36026,-1.06004 -6.20886,3.0287 0.15164,3.02864 2.57436,3.6344 5.90589,3.48296 8.63178,-0.45444 15.14343,8.63171 25.44097,4.24013 -1.21157,9.54038 -8.32881,7.72316 -12.87189,10.2975 -15.90061,8.78317 -19.83792,0.60574 -21.95788,-12.87187 -0.4544,-3.02869 -0.15163,-6.66309 -3.02873,-8.93458 l -4.99729,1.8172 c 0.15163,4.24011 -0.60577,8.63171 0.75718,12.41758 2.72575,7.72314 -0.45438,19.68644 14.53766,18.77783 7.57163,-0.45444 3.33154,6.05734 2.11998,9.2374 -7.11725,17.41491 -8.93461,36.34414 -17.41482,53.30476 -8.93458,17.71772 -7.57181,35.58706 0.90859,53.15326 2.57434,5.4516 4.99729,11.0547 3.48293,17.4149 2.12013,2.5743 4.84587,1.2115 5.45166,-0.6057 3.93729,-12.8719 11.20613,-24.8352 12.56911,-38.6157 -1.21158,-7.4202 5.14867,-11.20605 8.026,-16.50629 v -0.15163 c 3.02855,-13.62907 7.57164,-26.80381 13.62887,-39.37277 4.99748,-13.62907 3.48313,-30.58964 19.98935,-38.61571 4.08871,-2.57438 4.08871,-8.63166 2.42294,-11.81181 z m -59.36221,74.8083 c 9.38898,3.02869 9.38898,3.02869 12.2663,16.80922 -2.12013,-7.11745 -7.26882,-11.96332 -12.2663,-16.80922 z m -32.40682,-14.08328 c -4.08872,-16.35484 -11.96333,-31.95256 -11.81174,-49.36747 h 1.36277 l 1.36297,-0.45442 c 5.30028,0 12.4175,3.78584 15.29485,-1.66577 3.02872,-5.9059 -0.75719,-12.56902 -5.45167,-17.41491 -1.05998,-0.90861 -2.11997,-1.81722 -3.33151,-2.57437 -0.6058,-6.81449 -4.08874,-9.99464 -11.20616,-8.9346 -9.69177,1.51432 -6.05726,9.84321 -6.96585,17.7178 -3.48309,-4.39163 -5.75465,-9.08606 -7.26882,-8.7832 -16.50642,2.72581 -4.08871,-5.75446 -3.78589,-9.38886 l -5.30028,-0.45447 c -6.81445,0.3028 -13.78048,1.36296 -20.44354,0.60572 -11.05472,-1.05998 -15.44623,2.72585 -12.72048,13.7805 -0.3028,8.9346 -5.75447,19.535 10.29755,22.10936 2.27155,0.3028 14.99205,4.99733 11.35753,12.72046 -3.02872,6.51166 -0.60579,10.60037 0.90857,15.59773 3.93731,13.62903 13.17489,25.28938 14.38628,40.28133 0.60579,8.17741 8.1774,14.0834 9.69176,23.01793 2.12015,11.8119 4.69449,24.2294 10.90335,34.0727 8.1774,12.8718 23.32065,2.2715 34.67817,5.9058 0.90878,0.1519 1.81737,0.3029 2.72594,0.4546 1.81717,-4.6945 -0.15163,-8.9347 -1.36296,-13.4777 -6.36025,-24.9866 -17.26339,-48.76174 -23.32084,-73.74824 z m -16.65762,41.49279 12.4175,35.88997 c -12.2661,-9.0862 -10.90313,-23.0181 -12.4175,-35.88997 z M 371.22776,940.32566 c -2.57436,-37.40419 -3.48295,-55.12193 -47.39882,-63.75367 -7.26882,-1.51435 -15.90061,-3.33157 -19.08066,7.26882 -3.93731,0 -7.87455,0.15163 -11.20615,-2.72582 -7.26882,-6.96594 -35.13265,-7.72311 -42.5529,-1.06002 -2.42292,2.27154 -5.75452,6.05738 -7.11739,1.96861 -3.63443,-10.75178 -11.20614,-4.543 -17.11203,-5.30016 2.42294,12.56898 -7.72315,28.77242 10.90323,36.64704 1.21144,0.45444 1.21144,4.39157 1.21144,6.66304 0,27.10673 0,54.0619 -0.15163,81.1685 0,3.483 1.05996,8.7832 -4.54304,8.3289 -8.63177,-0.6056 -7.11745,5.3003 -7.26882,10.1461 -0.30276,6.9659 -0.30276,13.932 -0.45445,21.0493 l 2.72581,0.1517 c 28.77243,0.3027 57.54489,1.06 86.16592,0.6057 37.10127,-0.7571 50.8818,-13.9319 54.97052,-51.03321 1.96863,-16.65776 2.27149,-33.46684 0.90859,-50.12458 z m -67.23664,71.77964 c -19.23213,1.363 -19.68647,1.363 -21.35223,-16.96061 -0.60571,-6.6631 -3.78585,-5.90594 -8.17743,-5.75451 -1.96865,0.3028 -3.93723,-1.06002 -4.24013,-3.02868 v -1.21142 c 0,-1.96866 1.51432,-3.48297 3.48297,-3.63441 0.45446,0 1.06004,0.15144 1.51432,0.30276 9.99462,3.93728 6.96602,-4.08867 6.96602,-8.02596 0.30276,-18.62633 0.60571,-37.2527 0,-55.87908 -0.3028,-9.3889 3.0286,-11.66037 12.11467,-11.81182 14.38628,-0.15145 27.10672,0.75714 32.70971,16.80913 1.51439,0.15163 2.87727,0.45445 4.2402,0.90861 -1.36293,-0.45446 -2.87727,-0.75717 -4.2402,-0.90861 2.42298,4.84592 1.06006,9.69181 1.36293,14.68909 0.75718,14.38623 -5.30017,29.37815 3.78588,42.85576 1.21141,13.93192 -13.47759,30.58965 -28.16671,31.64975 z m 28.31814,-87.68016 c 0.15145,0 0.30279,0.15124 0.45443,0.30279 -0.15163,0 -0.30275,-0.15163 -0.45443,-0.30279 z m 197.31836,79.50266 c 4.54309,37.4043 4.24011,37.5557 -33.01259,37.5557 -23.77504,0 -47.55028,-0.3028 -71.32534,-0.4544 -3.18013,0.1514 -6.51163,0.6058 -9.69176,0.4544 -3.18014,-0.1514 -9.23737,1.6658 -8.63181,-3.6344 0.75718,-6.2088 5.14889,-1.9687 8.48039,-1.06 4.24012,1.2114 6.51167,-1.9687 6.20866,-5.3003 -0.60558,-5.9059 -3.9371,-10.146 -10.60033,-10.146 -4.24011,0 -8.78302,4.543 -12.4175,-1.6658 5.75444,-4.543 10.90332,-7.8746 9.08596,-18.7779 -1.66577,-9.54026 -8.48021,-24.22933 6.96604,-31.49817 1.21137,-0.75717 1.66576,-2.42292 0.90859,-3.63442 -0.30282,-0.45445 -0.60579,-0.75715 -0.90859,-0.90859 -14.08346,-8.78311 -5.60308,-22.71506 -8.02601,-34.07255 -1.81714,-8.17745 5.60306,-20.14074 -10.29754,-22.71511 -3.33155,-0.45444 -1.81722,-6.66309 -1.96867,-10.29749 -0.30276,-6.51171 -0.60571,-13.02337 -0.9086,-19.38358 0.60579,-0.75716 0.9086,-1.51432 1.06005,-2.42291 4.84595,-1.51433 6.6631,3.93729 10.7518,4.39155 20.59511,-2.57436 41.34142,-6.05734 62.08793,-3.93729 6.96604,0.75722 13.93187,-2.57439 20.59511,0.90859 1.96856,1.51439 0.75717,6.51168 4.69428,5.60309 3.48313,-0.75718 2.12016,-4.54303 2.57454,-7.11741 5.14869,-1.2115 7.11725,4.24016 11.20595,5.30018 4.84591,-9.99464 13.47768,-4.84586 20.29233,-4.39157 6.51163,0.45443 4.54289,7.11739 4.54289,11.35758 0.15144,12.569 -0.60579,25.13802 0.15144,37.55554 0.60577,9.5404 -3.02875,12.41765 -11.96331,11.50904 -5.6031,-0.60577 -11.05456,-0.60577 -16.65762,-0.15163 -8.329,0.90859 -12.11473,-1.81723 -11.50912,-10.6004 0.45439,-6.51161 -0.3028,-13.02331 -0.45418,-19.53495 -1.81718,-0.15163 -3.63452,-0.30278 -5.6031,-0.30278 -36.64712,-0.75718 -36.64712,-0.75718 -34.82976,36.64701 2.72573,0.15163 5.45146,0.3028 8.32881,0.3028 18.47495,0.15145 23.47223,6.5116 18.62635,24.83505 -2.57433,9.69184 -10.14596,4.69447 -15.90063,4.84593 l -10.75175,0.75713 c 0.75719,13.02334 -6.51163,27.25806 5.60307,38.76706 2.72574,-0.1514 5.60306,-0.4544 8.3288,-0.4544 25.44102,-0.6057 25.74381,-0.6057 26.50099,-26.19809 0.15163,-6.05741 1.51435,-8.32886 7.7232,-7.87459 9.2374,0.60578 19.83775,-2.27149 27.71237,1.06005 11.20611,4.69444 1.96854,16.20337 3.02872,24.68373 z"
       inkscape:connector-curvature="0"
       style="fill:#1b81a8;stroke-width:1.51433921"
       sodipodi:nodetypes="ccsccccccccccccccccccccccccsccccccccccccccccccccccccccccccccccccccccccccccccccccscccccccccccccccccccccccccccccscccccccccccccccccccccccccccccccccccccccccccccccccccccccccccccccccccccscccccccccccccsccccccccccccccccscccccscccccccccccccccccccccscccccccscccccc" />
    <path
       d="m 813.58071,860.4119 c -1.37949,0.0515 -2.88316,0.41951 -4.54893,1.13872 -8.48019,3.78579 -23.01901,-0.30391 -23.17058,14.68791 -0.15163,9.99465 -5.30009,13.93309 -12.87193,17.11324 l -0.30163,0.15046 c -5.60305,7.5717 -11.50774,5.7545 -17.71662,0.75716 l -0.30452,-0.15125 -8.32901,0.60336 c -2.72573,4.84589 -4.99726,9.99464 -8.32881,14.38621 -6.20885,8.02599 -8.93342,14.23662 0.45556,23.01973 8.63161,8.17745 0.90801,26.34833 -11.96391,31.34567 l -3.78589,1.9698 -2.27156,7.42084 0.75719,5.75275 c 1.06017,1.96864 3.02873,4.0881 3.02873,6.20817 0,12.26615 6.36142,17.11203 17.87035,16.65783 3.33152,-0.1515 6.66187,0.4561 7.11627,4.8475 l 4.08753,5.7528 c 0.90857,0.1515 1.51437,1.0606 1.51437,2.1207 3.6343,2.1201 6.05783,6.2105 4.39208,9.3907 -7.87442,14.8404 2.87733,20.8954 12.1147,27.8615 6.36027,3.0285 12.57026,7.27 18.62754,-1.0589 9.99475,-13.6291 19.83734,-4.3916 29.68051,0.7572 3.33153,3.9372 5.60424,8.7826 6.51282,13.7798 7.57181,4.2402 14.38509,-1.816 21.50251,-1.816 9.69178,0 13.02446,-5.4528 14.08443,-14.8417 1.81736,-16.8091 13.47595,-23.319 29.98217,-17.8675 2.7259,0.9087 6.05687,3.0288 7.72262,0.7572 5.90587,-7.1174 11.20731,-14.8422 15.5988,-23.0196 3.02873,-5.906 -3.17896,-9.84151 -6.35908,-14.08162 -5.60307,-7.57177 -4.84705,-21.65746 1.81619,-27.41196 13.32608,-11.50896 13.32667,-12.11409 -1.6652,-22.10874 3.02855,-3.63442 5.45032,-8.3295 9.38763,-10.44955 5.14869,-2.72581 2.57434,-5.14699 0.75718,-7.26705 -2.72574,-3.18015 -5.90469,-2.12128 -7.87345,1.05886 -3.02853,4.99727 -6.36084,9.99583 -5.90644,16.35605 -4.39151,0.30278 -10.14672,0.15066 -8.17798,-5.75572 5.75446,-16.96057 -16.20227,-30.89309 -4.84473,-48.30799 1.96855,-3.02871 -2.12075,-4.38923 -4.39227,-5.90355 -5.45149,-3.63442 -11.20478,-6.81633 -16.20224,-10.90503 -4.99731,-4.08873 -8.78418,-2.72404 -13.32726,1.06184 -12.72053,10.29747 -25.89578,8.02543 -34.67899,-6.66369 -2.83942,-4.77018 -5.84969,-7.496 -9.98815,-7.34689 z m 351.94179,13.09667 c -8.3336,0.0117 -16.7103,0.15631 -25.0013,1.06476 -29.9839,3.48298 -40.8884,17.26289 -39.0711,47.85253 1.5144,6.66311 -6.966,19.08011 9.8432,17.56573 0.3028,-0.15163 1.8166,4.99736 1.6652,7.57172 -0.3028,6.96594 -6.0561,-3.93609 -7.1163,2.72699 2.5743,5.14874 18.6264,-3.63502 12.8719,11.50839 -0.7572,2.42293 4.0875,2.27035 6.3591,0.30165 1.6658,-1.51438 3.1824,-4.08874 4.6968,0 3.7859,10.60035 13.4752,9.69351 21.8042,11.66218 8.6316,5.14873 19.0824,-0.15338 27.5627,4.9955 12.1147,4.54303 14.0821,14.0834 11.6591,24.98668 -2.5743,11.6604 -12.4174,10.6016 -21.2007,11.0558 -4.5431,0.3028 -9.2362,-0.152 -13.9307,0.1504 -9.9948,0.4545 -14.8404,-3.1789 -13.6291,-13.9308 0.6058,-4.99719 3.1808,-12.87173 -3.9367,-14.38611 -6.8144,-1.51432 -15.9016,-3.63555 -20.8991,3.33038 -6.8144,9.38889 -7.8758,2.42414 -10.2987,-4.08752 -8.1774,14.68905 -3.7857,29.22675 -5.3001,43.15865 -0.9085,7.8746 2.5767,10.2981 9.9969,11.2068 25.441,3.18 51.0328,3.9372 76.6251,2.2714 9.8433,-0.4544 20.4423,-1.0624 29.0741,-7.7255 l 2.4224,-1.6652 c 20.4434,-14.8405 22.8683,-62.23988 3.3332,-78.59474 -7.8744,-6.96593 -17.7184,-12.56784 -27.8643,-9.38773 -6.6631,2.12011 -12.7216,-11.81069 -17.8705,0.45561 -10.9031,-16.35487 -17.5645,-6.05733 -23.9247,4.54302 -4.2401,-3.93731 -9.389,-7.26882 -6.8145,-12.87189 3.6344,-7.57174 -2.1208,-9.08839 -5.9066,-12.26854 -1.3628,-4.39157 -1.3642,-9.23747 0.3016,-13.62907 7.4203,-8.63166 17.5676,-9.23683 27.7137,-9.99398 5.6029,4.54303 19.2334,-5.29847 18.6276,9.39062 -0.4545,11.20615 3.7839,14.68677 14.0815,14.23243 5.4516,0 11.0553,0.30449 16.5067,1.06183 8.3291,1.06004 11.6612,-1.96802 11.2068,-10.75124 -0.6056,-11.50894 0.3034,-23.01912 0.6064,-34.52807 h 0.1516 l -2.1205,-3.17953 -3.1796,-1.0618 c -19.0808,0.90859 -19.0819,0.90917 -17.1131,19.53555 0.4543,3.78589 -1.3625,7.42201 -4.6939,9.39067 -5.6031,3.33158 -6.2077,-3.63675 -9.3879,-5.45397 3.3315,-18.62635 -2.2721,-26.50095 -19.5355,-26.50095 -2.7636,0 -5.5363,-0.006 -8.314,-0.004 z m -153.4599,1.34573 c -2.1815,-0.0175 -4.3886,0.21005 -6.6222,0.77787 -2.7257,0.75718 -7.87402,-1.96743 -6.96546,4.99851 1.21158,8.02598 5.90546,3.17892 9.23696,3.33036 l 1.9698,5.14936 c -6.3603,4.24017 -11.66093,6.2076 -15.74965,-3.48414 -1.21157,-2.72581 -6.51105,-11.3576 -12.26572,-2.27153 -2.87715,-3.1801 -9.69041,4.24132 -10.902,-4.08749 -0.15143,-1.36293 8.47847,-3.17896 -0.30452,-4.08755 -9.23739,-0.90861 -8.63044,5.30016 -8.63044,10.60034 0,5.3002 0.90801,9.53976 -7.4208,7.72253 1.66575,-2.72579 3.63315,-4.84703 4.08734,-7.26997 0.60578,-3.63441 2.5757,-10.1467 -3.33035,-9.69237 -5.60289,0.30276 -16.50505,-4.69212 -16.20208,3.93963 0.30282,9.38888 -11.66285,24.834 8.93226,29.07413 4.24012,0.90862 2.87773,6.36021 2.87773,9.84319 0,26.50098 10e-4,53.15276 -0.30162,79.65364 0,3.18009 1.05939,8.33009 -2.12055,8.78429 -19.68652,3.3317 -7.26767,18.3224 -10.14499,27.5599 -1.51436,4.6944 2.87617,6.058 7.11627,5.9065 6.51165,-0.1514 13.02389,6e-4 19.53552,-0.1504 8.32881,-0.3028 14.53823,-4.8459 16.5068,-12.1147 1.36296,-4.8459 1.66459,-7.1187 6.35908,-4.2413 3.48292,2.12 7.11742,4.9978 3.02873,9.6922 -1.21159,1.2115 -5.45283,0.1506 -2.7271,4.0876 1.81714,2.5743 22.71759,3.1819 23.62619,0.3045 3.1801,-9.086 -1.515,-18.0206 -1.3636,-27.2581 0.1517,-4.2402 -9.6929,-1.3647 -14.84178,-1.819 l -0.908,-0.4527 c -1.05997,-6.5117 -3.63431,-18.17152 1.51437,-18.32297 10.90331,0 20.89911,-7.87455 32.25661,-3.02864 8.9346,4.24013 16.6572,-5.45164 25.8946,-4.54301 0.3028,0 1.0596,-6.36086 1.6652,-9.6924 9.8432,3.78588 15.1446,-0.75713 17.8703,-9.8432 6.6633,-23.47223 7.8723,-46.64222 -2.4253,-69.50877 -8.3288,-14.3862 -17.4136,-18.77839 -33.617,-16.50685 l -6.5128,1.06177 c -6.2467,-1.81723 -12.5767,-4.06153 -19.1216,-4.1112 z m 0.2634,30.41696 c 19.7059,0.0601 23.384,6.68613 22.1915,30.93452 -0.1515,4.0887 0,8.3306 0,12.41934 -7.5716,7.87457 -27.1078,12.56902 -36.79972,9.08604 -4.6943,-1.66577 -4.54292,-5.3008 -4.54292,-8.93523 0,-11.05461 0.30339,-22.26075 -0.14969,-33.31544 -0.3028,-7.11737 2.87714,-9.38893 9.84313,-9.84318 3.502,-0.22724 6.6437,-0.35485 9.4588,-0.34628 z m -190.80089,5.61071 c 0.8289,-0.0117 1.66167,0.004 2.49932,0.0344 25.44079,0.60571 48.76108,26.19684 47.09531,51.78922 -1.51436,24.38083 -25.28882,46.79311 -49.36687,45.43011 -26.34938,-1.5143 -49.67138,-17.71595 -48.15721,-50.42567 1.02692,-25.96621 22.23637,-46.53292 47.92945,-46.82917 z m 6.43001,119.36663 c 1.10273,-0.029 2.01132,0.679 2.5792,2.8749 0.45419,1.5142 -4.6939,6.3602 -7.72263,6.8145 -5.45148,0.9086 -4.08872,-5.6013 -6.05725,-9.5386 2.83941,6.7011 7.89286,-0.059 11.20068,-0.1512 z"
       id="_x23_124C6F"
       style="fill:#124c6f;fill-opacity:1;stroke-width:1.51433921"
       inkscape:connector-curvature="0"
       sodipodi:nodetypes="ccccccccccccccscccccccccscccccsccsccccsscccccccccccccccccccccccccccccccccccccccccccccsccccccccccscccccsccccccccccccccccccccccccccscccccccccccccc" />
    <flowRoot
       xml:space="preserve"
       id="flowRoot4768"
       style="fill:#ffcc00;fill-opacity:1;stroke:none;font-family:sans-serif;font-style:normal;font-weight:normal;font-size:40px;line-height:1.25;letter-spacing:0px;word-spacing:0px;"><flowRegion
         id="flowRegion4770"
         style="fill:#ffcc00;fill-opacity:1;"><rect
           id="rect4772"
           width="329.30972"
           height="103.03556"
           x="260.61935"
           y="469.86786"
           style="fill:#ffcc00;fill-opacity:1;" /></flowRegion><flowPara
         id="flowPara4774" /></flowRoot>    <text
       xml:space="preserve"
       style="font-style:normal;font-weight:normal;font-size:77.76031494px;line-height:1.25;font-family:sans-serif;letter-spacing:0px;word-spacing:0px;fill:#ffde48;fill-opacity:1;stroke:none;stroke-width:1.94400787"
       x="1120.8103"
       y="865.92859"
       id="text4778"><tspan
         sodipodi:role="line"
         id="tspan4776"
         x="1120.8103"
         y="865.92859"
         style="font-style:normal;font-variant:normal;font-weight:normal;font-stretch:normal;font-size:207.36082458px;font-family:'Noto Sans Mono CJK TC';-inkscape-font-specification:'Noto Sans Mono CJK TC';fill:#ffde48;fill-opacity:1;stroke-width:1.94400787">NATAL</tspan></text>
  </g>
</svg>
